<svg xmlns="http://www.w3.org/2000/svg" xmlns:xlink="http://www.w3.org/1999/xlink" width="20" height="20" viewBox="0 0 20 20"><defs><path id="avgha" d="M1055.24 399.9c.67-1.35.21-3.02-1.03-3.76a.45.45 0 0 0-.47.01.52.52 0 0 0-.23.45c0 .18.1.34.24.43.8.47 1.09 1.53.66 2.38a.53.53 0 0 0 .2.7c.23.12.51.03.64-.22z"/><path id="avghb" d="M1054.72 393.29a.56.56 0 0 0-.54 0 .52.52 0 0 0-.26.46c0 .18.1.35.28.44a4.97 4.97 0 0 1 2.1 6.84.5.5 0 0 0 .21.7c.27.14.6.04.74-.21a5.99 5.99 0 0 0-2.53-8.23z"/><path id="avghc" d="M1040.15 397.8c-.2.7-.13 1.45.2 2.1.12.24.4.33.64.2a.53.53 0 0 0 .2-.69 1.84 1.84 0 0 1 .65-2.38.53.53 0 0 0 .18-.69.46.46 0 0 0-.64-.2c-.6.36-1.04.95-1.23 1.65z"/><path id="avghd" d="M1039.23 401.8c.2 0 .37-.1.47-.26a.5.5 0 0 0 .01-.51 4.97 4.97 0 0 1 2.1-6.84.5.5 0 0 0 .2-.7.55.55 0 0 0-.73-.2 5.99 5.99 0 0 0-2.52 8.23c.09.17.27.27.47.27z"/><path id="avghe" d="M1048.83 410.08c0 .48-.37.87-.83.87a.85.85 0 0 1-.83-.87c0-.3-.23-.53-.5-.53-.28 0-.51.24-.51.53 0 .68.35 1.32.92 1.66.57.34 1.27.34 1.84 0 .56-.34.91-.98.91-1.66 0-.3-.22-.53-.5-.53s-.5.24-.5.53z"/><path id="avghf" d="M1052.7 408.73h-9.76c-.78.02-1.5-.41-1.87-1.1-.39-.79-.23-1.73.38-2.35l.22-.23c.51-.5.8-1.19.8-1.9v-3.09-.34a5.05 5.05 0 0 1 3.58-4.46v-1.52a1.74 1.74 0 0 1 3.5 0v1.52a5.05 5.05 0 0 1 3.59 4.8v2.97c0 .64.22 1.26.64 1.76l.47.54c.31.37.49.83.49 1.32v.07c0 1.11-.91 2.01-2.03 2.01zm-5.62-13.68c.19-.02.37-.03.56-.03h.32l.56.03v-1.3a.72.72 0 0 0-1.44 0zm-5.09 12.12c.2.34.56.55.95.54h9.74a1 1 0 0 0 1-1v-.07a1 1 0 0 0-.24-.65l-.46-.55a3.71 3.71 0 0 1-.9-2.41v-3.25a4.09 4.09 0 0 0-4.14-3.74h-.32c-2.18 0-4 1.65-4.14 3.74v3.37c0 .99-.38 1.93-1.08 2.63l-.22.22a1 1 0 0 0-.19 1.17z"/><path id="avghg" d="M1044.94 400.03V402.08c0 .3.24.53.54.53.3 0 .55-.24.55-.53v-1.83-.14c.06-.98.96-1.74 2.04-1.74.3 0 .54-.24.54-.53 0-.3-.24-.53-.54-.53-1.66 0-3.03 1.2-3.13 2.72z"/></defs><g><g transform="translate(-1038 -392)"><use fill="#fff" xlink:href="#avgha"/></g><g transform="translate(-1038 -392)"><use fill="#fff" xlink:href="#avghb"/></g><g transform="translate(-1038 -392)"><use fill="#fff" xlink:href="#avghc"/></g><g transform="translate(-1038 -392)"><use fill="#fff" xlink:href="#avghd"/></g><g transform="translate(-1038 -392)"><use fill="#fff" xlink:href="#avghe"/></g><g transform="translate(-1038 -392)"><use fill="#fff" xlink:href="#avghf"/></g><g transform="translate(-1038 -392)"><use fill="#fff" xlink:href="#avghg"/></g></g></svg>