<svg xmlns="http://www.w3.org/2000/svg" xmlns:xlink="http://www.w3.org/1999/xlink" width="28" height="31" viewBox="0 0 28 31"><defs><path id="kecua" d="M320 387.17c-.7 0-1.27-.58-1.27-1.3v-1.2a9.01 9.01 0 0 0-7.64 8.95v6.01l-4.81 6.1c-.3.4-.37.92-.15 1.37.2.45.65.73 1.14.73h25.46c.49 0 .93-.28 1.14-.73.22-.45.16-.98-.15-1.37l-4.81-6.1v-6a9.01 9.01 0 0 0-7.64-8.95v1.2c0 .7-.57 1.29-1.27 1.29zm-1.27-3.88c0-.71.57-1.29 1.27-1.29.7 0 1.27.58 1.27 1.3v1.38a8.82 8.82 0 0 0-2.54 0zm1.27 16.8c0-.72-.57-1.3-1.27-1.3-.7 0-1.28.58-1.28 1.3 0 .7.58 1.29 1.28 1.29.7 0 1.27-.59 1.27-1.3zm7.64 1.29h-.62l-.38-.49a1.3 1.3 0 0 1-.28-.8v-1.3h1.28c.7 0 1.27.58 1.27 1.3 0 .7-.57 1.29-1.27 1.29zm-.62 0l3.06 3.87h-20.16l3.44-4.36c.18-.23.28-.51.28-.8v-6.46a6.42 6.42 0 0 1 6.36-6.46c3.5 0 6.36 2.9 6.36 6.45v5.17h-3.81c-.7 0-1.28.58-1.28 1.3 0 .7.58 1.29 1.28 1.29zM320 413a2.57 2.57 0 0 1-2.55-2.58c0-.72.57-1.3 1.28-1.3h2.54c.7 0 1.28.58 1.28 1.3A2.57 2.57 0 0 1 320 413z"/></defs><g><g transform="translate(-306 -382)"><use fill="#fff" xlink:href="#kecua"/></g></g></svg>