<svg xmlns="http://www.w3.org/2000/svg" xmlns:xlink="http://www.w3.org/1999/xlink" width="11" height="13" viewBox="0 0 11 13"><defs><path id="6go6a" d="M264.95 264.55h-7.16a1.52 1.52 0 0 1-1.1-2.59l.17-.17c.37-.38.58-.9.58-1.43v-2.31-.26a3.77 3.77 0 0 1 2.63-3.34v-1.14c0-.73.57-1.31 1.28-1.31.7 0 1.28.58 1.28 1.3v1.15a3.77 3.77 0 0 1 2.63 3.6v2.22c0 .48.17.95.47 1.32l.35.4c.23.28.36.63.36 1v.05a1.5 1.5 0 0 1-1.5 1.51zm-4.13-10.26l.41-.03h.23l.42.03v-.98c0-.3-.24-.54-.53-.54-.3 0-.53.24-.53.54zm-3.73 9.08c.14.26.4.42.7.42h7.14c.4 0 .73-.34.73-.75v-.06a.76.76 0 0 0-.17-.49l-.35-.4a2.82 2.82 0 0 1-.65-1.82v-2.43a3.02 3.02 0 0 0-3.04-2.8h-.23a3.02 3.02 0 0 0-3.04 2.8v2.52a2.8 2.8 0 0 1-.8 1.97l-.15.17a.76.76 0 0 0-.14.87z"/></defs><g><g transform="translate(-256 -252)"><use fill="#044669" xlink:href="#6go6a"/></g></g></svg>