<svg xmlns="http://www.w3.org/2000/svg" xmlns:xlink="http://www.w3.org/1999/xlink" width="16" height="17" viewBox="0 0 16 17"><defs><path id="zryga" d="M246 309.83a.72.72 0 0 1-.73-.7v-.66a5.01 5.01 0 0 0-4.36 4.9v3.3l-2.75 3.35a.7.7 0 0 0-.09.75c.12.24.38.4.66.4h14.54c.28 0 .54-.16.66-.4a.7.7 0 0 0-.09-.75l-2.75-3.35v-3.3c0-2.49-1.9-4.56-4.36-4.9v.65c0 .4-.33.71-.73.71zm-.73-2.12c0-.4.33-.71.73-.71.4 0 .73.32.73.7v.77a5.25 5.25 0 0 0-1.46 0zm.73 9.2c0-.38-.33-.7-.73-.7-.4 0-.72.32-.72.7 0 .4.32.71.72.71.4 0 .73-.31.73-.7zm4.36.71h-.35l-.21-.26a.7.7 0 0 1-.16-.44v-.71h.72c.4 0 .73.32.73.7 0 .4-.33.71-.73.71zm-.35 0l1.75 2.13h-11.52l1.96-2.4a.7.7 0 0 0 .16-.43v-3.55a3.6 3.6 0 0 1 3.64-3.54c2 0 3.64 1.6 3.64 3.55v2.83h-2.19c-.4 0-.72.32-.72.7 0 .4.32.71.72.71zM246 324c-.8 0-1.45-.64-1.45-1.42 0-.39.32-.7.72-.7h1.46c.4 0 .72.31.72.7 0 .78-.65 1.42-1.45 1.42z"/></defs><g><g opacity=".25" transform="translate(-238 -307)"><use fill="#fff" xlink:href="#zryga"/></g></g></svg>