<?xml version="1.0" encoding="UTF-8"?>
<svg width="17px" height="17px" viewBox="0 0 17 17" version="1.1" xmlns="http://www.w3.org/2000/svg" xmlns:xlink="http://www.w3.org/1999/xlink">
    <!-- Generator: Sketch 50 (54983) - http://www.bohemiancoding.com/sketch -->
    <title>noun_534811_cc</title>
    <desc>Created with Sketch.</desc>
    <defs></defs>
    <g id="MAIN" stroke="none" stroke-width="1" fill="none" fill-rule="evenodd">
        <g id="Sidebar_allerts+exchange_dashboard_slide_content+notifications" transform="translate(-237.000000, -369.000000)" fill="#FFC600" fill-rule="nonzero">
            <g id="noun_534811_cc" transform="translate(237.000000, 369.000000)">
                <path d="M6.37656815,17 L6.19314112,16.9759204 C5.94880781,16.9100557 5.75759044,16.7195438 5.69243489,16.4744988 L4.3199191,11.3306775 L1.4495339,8.460251 C-0.483177967,6.52751133 -0.483177967,3.38229443 1.4495339,1.44955476 C3.38224577,-0.483184919 6.52741741,-0.483184919 8.46012928,1.44955476 L11.3305145,4.31998125 L16.4742618,5.69251679 C16.7193033,5.75767328 16.9098124,5.9488934 16.9756762,6.19323022 C17.04154,6.43756705 16.9714269,6.69890121 16.7922492,6.87737333 L6.87727438,16.7924908 C6.74271401,16.9270531 6.56211982,17 6.37656815,17 Z M4.9551857,1.41556007 C4.04796551,1.41556007 3.14145353,1.76046451 2.45094635,2.45098162 C1.07064022,3.83201583 1.07064022,6.07849815 2.45094635,7.45882414 L5.45589192,10.4638129 C5.54441848,10.5516326 5.6074494,10.6614071 5.63931896,10.7818049 L6.74413043,14.9227829 L14.92186,6.74422746 L10.7809416,5.63940009 C10.6605455,5.60753007 10.5507725,5.54379003 10.4629542,5.45597042 L7.45871683,2.45098162 C6.76891787,1.76046451 5.86169768,1.41556007 4.9551857,1.41556007 Z M10.6258431,16.5757746 C10.1853349,16.5757746 9.74482673,16.4121752 9.41692435,16.0842681 C9.14001327,15.807353 9.14001327,15.3597563 9.41692435,15.0828412 L10.8333493,13.6663959 C11.1102604,13.3894808 11.5578507,13.3894808 11.8347618,13.6663959 C12.4905665,14.3215018 12.4905665,15.4291621 11.8347618,16.0842681 C11.5068594,16.4121752 11.0663512,16.5757746 10.6258431,16.5757746 Z M7.08478064,9.20955059 C6.89356327,9.20955059 6.71651015,9.13872832 6.58194977,9.00416602 C6.30574691,8.72795917 6.30574691,8.27469666 6.58194977,7.99848982 C6.85107052,7.73644743 7.31849076,7.7293652 7.5876115,7.99848982 C7.72217187,8.13305213 7.79299312,8.3101078 7.79299312,8.50132792 C7.79299312,8.69254804 7.72217187,8.86960371 7.5876115,9.00416602 C7.45305113,9.13872832 7.27599801,9.20955059 7.08478064,9.20955059 Z M8.5861911,7.70811852 C8.39497373,7.70811852 8.21792061,7.63021403 8.08336024,7.49565172 C7.80715737,7.22652711 7.80715737,6.77326459 8.08336024,6.49705775 L10.1230122,4.45737645 C10.3921329,4.18825184 10.8595532,4.19533406 11.1286739,4.45737645 C11.2625261,4.59193876 11.3340555,4.76899443 11.3340555,4.96021455 C11.3340555,5.15143467 11.2625261,5.32849034 11.1286739,5.46305265 L9.08902197,7.49565172 C8.9544616,7.63021403 8.77740847,7.70811852 8.5861911,7.70811852 Z M1.42049719,2.1287403 C1.23919479,2.1287403 1.0578924,2.05933448 0.919790964,1.92123106 L0.210162055,1.21159194 C-0.0667490266,0.934676873 -0.0667490266,0.487080144 0.210162055,0.210165078 C0.487073136,-0.066749987 0.934663426,-0.066749987 1.21157451,0.210165078 L1.92120342,0.919804197 C2.1981145,1.19671926 2.1981145,1.64431599 1.92120342,1.92123106 C1.78310198,2.0600427 1.60179959,2.1287403 1.42049719,2.1287403 Z" id="Shape"></path>
            </g>
        </g>
    </g>
</svg>