<svg xmlns="http://www.w3.org/2000/svg" xmlns:xlink="http://www.w3.org/1999/xlink" width="17" height="17" viewBox="0 0 17 17"><defs><path id="9qy0a" d="M238.42 398.13a.7.7 0 0 1-.43-.15 4.97 4.97 0 0 0 .46 6.48l2.87 2.87 1.37 5.14a.7.7 0 0 0 .5.5l.19.03a.7.7 0 0 0 .5-.2l9.91-9.92a.7.7 0 0 0-.32-1.19l-5.14-1.37-2.87-2.87a4.97 4.97 0 0 0-6.48-.46.7.7 0 0 1-.56 1.14zm-.5-.2l-.71-.72a.7.7 0 1 1 1-1l.71.71.06.07a4.98 4.98 0 0 0-1 1 .71.71 0 0 1-.06-.07zm7.67 5.78a.7.7 0 0 0 .5-.21l1.83-1.82 4 1.06-8.18 8.18-1.1-4.14a.7.7 0 0 0-.18-.32l-3-3a3.55 3.55 0 0 1 5-5l2.33 2.33-1.7 1.7a.7.7 0 0 0 0 1 .7.7 0 0 0 .5.22zm1.53-3.25a.73.73 0 0 1 1 0c.14.13.21.3.21.5a.7.7 0 0 1-.2.5l-.21.22-.14-.04a.7.7 0 0 1-.32-.18l-.67-.67zM244.6 405a.7.7 0 0 0 .2-.5.7.7 0 0 0-.2-.5.73.73 0 0 0-1 0 .71.71 0 0 0 0 1c.13.14.3.21.5.21a.7.7 0 0 0 .5-.2zm3.04 7.58a1.7 1.7 0 0 1-1.21-.5.7.7 0 0 1 0-1l1.41-1.41a.7.7 0 0 1 1 0c.66.65.66 1.76 0 2.41-.32.33-.76.5-1.2.5z"/></defs><g><g transform="translate(-237 -396)"><use fill="#ffc600" xlink:href="#9qy0a"/></g></g></svg>