<?xml version="1.0" encoding="UTF-8"?>
<svg width="12px" height="10px" viewBox="0 0 12 10" version="1.1" xmlns="http://www.w3.org/2000/svg" xmlns:xlink="http://www.w3.org/1999/xlink">
    <!-- Generator: Sketch 50 (54983) - http://www.bohemiancoding.com/sketch -->
    <title>noun_878727_cc</title>
    <desc>Created with Sketch.</desc>
    <defs></defs>
    <g id="MAIN" stroke="none" stroke-width="1" fill="none" fill-rule="evenodd">
        <g id="Sign_in_modal" transform="translate(-782.000000, -689.000000)" fill="#FFFFFF" fill-rule="nonzero">
            <g id="noun_878727_cc" transform="translate(782.000000, 689.000000)">
                <path d="M7,10 C6.744,10 6.488,9.902 6.293,9.707 C5.902,9.316 5.902,8.684 6.293,8.293 L9.586,5 L6.293,1.707 C5.902,1.316 5.902,0.684 6.293,0.293 C6.684,-0.098 7.316,-0.098 7.707,0.293 L11.707,4.293 C12.098,4.684 12.098,5.316 11.707,5.707 L7.707,9.707 C7.512,9.902 7.256,10 7,10 Z M11,6 L1,6 C0.448,6 0,5.552 0,5 C0,4.448 0.448,4 1,4 L11,4 C11.553,4 12,4.448 12,5 C12,5.552 11.553,6 11,6 Z" id="Shape"></path>
            </g>
        </g>
    </g>
</svg>