<svg xmlns="http://www.w3.org/2000/svg" xmlns:xlink="http://www.w3.org/1999/xlink" width="18" height="20" viewBox="0 0 18 20"><defs><path id="uzb7a" d="M955 152.79a1 1 0 0 1-1-1V142a1 1 0 1 1 2 0v9.79a1 1 0 0 1-1 1z"/><path id="uzb7b" d="M969 154.79a1 1 0 0 1-1-1V140a1 1 0 1 1 2 0v13.79a1 1 0 0 1-1 1z"/><path id="uzb7c" d="M962 156.79a1 1 0 0 1-1-1V138a1 1 0 0 1 2 0v17.79a1 1 0 0 1-1 1z"/><path id="uzb7d" d="M953 145a1 1 0 0 1 1-1h2a1 1 0 0 1 1 1v4a1 1 0 0 1-1 1h-2a1 1 0 0 1-1-1z"/><path id="uzb7e" d="M967 146a1 1 0 0 1 1-1h2a1 1 0 0 1 1 1v2a1 1 0 0 1-1 1h-2a1 1 0 0 1-1-1z"/><path id="uzb7f" d="M960 142a1 1 0 0 1 1-1h2a1 1 0 0 1 1 1v10a1 1 0 0 1-1 1h-2a1 1 0 0 1-1-1z"/></defs><g><g transform="translate(-953 -137)"><g><use fill="#004dff" xlink:href="#uzb7a"/></g><g><use fill="#004dff" xlink:href="#uzb7b"/></g><g><use fill="#004dff" xlink:href="#uzb7c"/></g><g><use fill="#004dff" xlink:href="#uzb7d"/></g><g><use fill="#004dff" xlink:href="#uzb7e"/></g><g><use fill="#004dff" xlink:href="#uzb7f"/></g></g></g></svg>