<svg xmlns="http://www.w3.org/2000/svg" xmlns:xlink="http://www.w3.org/1999/xlink" width="15" height="15" viewBox="0 0 15 15"><defs><path id="axzra" d="M1111 1038.5a7.5 7.5 0 1 1-15.02-.02 7.5 7.5 0 0 1 15.02.02zm-6.73 2.63h-1.67v1.56h1.67zm2.05-4.6c0-.89-.69-2.22-2.85-2.22-1.68 0-2.76 1.2-2.79 2.83h1.69c0-.81.35-1.49 1.18-1.49.6 0 .97.33.97 1.03 0 .62-.39.89-.84 1.24-.46.36-.93.8-1 1.8v.52h1.55v-.44c.1-.68.63-.97 1.13-1.34.49-.38.96-.83.96-1.94z"/></defs><g><g transform="translate(-1096 -1031)"><use fill="#ffc600" xlink:href="#axzra"/></g></g></svg>