<?xml version="1.0" encoding="UTF-8"?>
<svg width="24px" height="24px" viewBox="0 0 24 24" version="1.1" xmlns="http://www.w3.org/2000/svg" xmlns:xlink="http://www.w3.org/1999/xlink">
    <!-- Generator: Sketch 50 (54983) - http://www.bohemiancoding.com/sketch -->
    <title>noun_534885_cc</title>
    <desc>Created with Sketch.</desc>
    <defs></defs>
    <g id="MAIN" stroke="none" stroke-width="1" fill="none" fill-rule="evenodd">
        <g id="Exchange_dashboard_main_close_side" transform="translate(-37.000000, -891.000000)" fill="#FFFFFF" fill-rule="nonzero">
            <g id="noun_534885_cc" transform="translate(37.000000, 891.000000)">
                <path d="M21.998,24 L4,24 C1.794,24 0,22.206 0,20 C0,19.447 0.448,19 1,19 C1.552,19 2,19.447 2,20 C2,21.103 2.897,22 4,22 L21.998,22 L22,8 L4,8 C1.794,8 0,6.206 0,4 C0,1.794 1.794,0 4,0 L21.999,0 C23.103,0 24,0.897 24,2.001 L24,21.998 C24,23.102 23.102,24 21.998,24 Z M4,2 C2.897,2 2,2.897 2,4 C2,5.103 2.897,6 4,6 L22,6 L22,2.001 L4,2 Z M1,21 C0.448,21 0,20.553 0,20 L0,4 C0,3.448 0.448,3 1,3 C1.552,3 2,3.448 2,4 L2,20 C2,20.553 1.552,21 1,21 Z M23,5 L4,5 C3.448,5 3,4.552 3,4 C3,3.448 3.448,3 4,3 L23,3 C23.553,3 24,3.448 24,4 C24,4.552 23.553,5 23,5 Z" id="Shape"></path>
            </g>
        </g>
    </g>
</svg>