<?xml version="1.0" encoding="UTF-8"?>
<svg width="24px" height="24px" viewBox="0 0 24 24" version="1.1" xmlns="http://www.w3.org/2000/svg" xmlns:xlink="http://www.w3.org/1999/xlink">
    <!-- Generator: Sketch 50 (54983) - http://www.bohemiancoding.com/sketch -->
    <title>noun_878672_cc</title>
    <desc>Created with Sketch.</desc>
    <defs></defs>
    <g id="MAIN" stroke="none" stroke-width="1" fill="none" fill-rule="evenodd">
        <g id="Info_dashboard_security_settings_2" transform="translate(-628.000000, -872.000000)" fill="#004DFF" fill-rule="nonzero">
            <g id="noun_878672_cc" transform="translate(628.000000, 872.000000)">
                <path d="M20.631,6 L17,6 C16.447,6 16,5.552 16,5 C16,4.448 16.447,4 17,4 L20,4 L20,1 C20,0.448 20.447,0 21,0 C21.553,0 22,0.448 22,1 L22,4.631 C22,5.386 21.386,6 20.631,6 Z M1,13 C0.448,13 0,12.552 0,12 C0,5.383 5.383,0 12,0 C15.205,0 18.219,1.248 20.485,3.515 C20.876,3.905 20.876,4.538 20.485,4.929 C20.094,5.32 19.462,5.32 19.071,4.929 C17.182,3.04 14.671,2 12,2 C6.486,2 2,6.486 2,12 C2,12.552 1.552,13 1,13 Z M3,24 C2.448,24 2,23.553 2,23 L2,19.369 C2,18.614 2.614,18 3.369,18 L7,18 C7.552,18 8,18.447 8,19 C8,19.553 7.552,20 7,20 L4,20 L4,23 C4,23.553 3.552,24 3,24 Z M12,24 C8.795,24 5.782,22.752 3.515,20.485 C3.124,20.094 3.124,19.462 3.515,19.071 C3.906,18.68 4.538,18.68 4.929,19.071 C6.818,20.96 9.329,22 12,22 C17.514,22 22,17.514 22,12 C22,11.448 22.447,11 23,11 C23.553,11 24,11.448 24,12 C24,18.617 18.617,24 12,24 Z" id="Shape"></path>
            </g>
        </g>
    </g>
</svg>