<svg xmlns="http://www.w3.org/2000/svg" xmlns:xlink="http://www.w3.org/1999/xlink" width="17" height="8" viewBox="0 0 17 8"><defs><path id="gdj5a" d="M965 934.67v6.66c0 .25.16.47.4.59.26.11.57.1.81-.02l3.42-3.33a.65.65 0 0 0 .37-.57.65.65 0 0 0-.37-.57l-3.42-3.33a.92.92 0 0 0-.8-.02c-.25.12-.41.34-.41.59z"/><path id="gdj5b" d="M974 934.67v6.66c0 .25.16.47.4.59.26.11.57.1.81-.02l3.42-3.33a.65.65 0 0 0 .37-.57.65.65 0 0 0-.37-.57l-3.42-3.33a.92.92 0 0 0-.8-.02c-.25.12-.41.34-.41.59z"/></defs><g><g transform="translate(-963.5 -934)"><g><use fill="#fff" xlink:href="#gdj5a"/></g><g><use fill="#fff" xlink:href="#gdj5b"/></g></g></g></svg>