<?xml version="1.0" encoding="UTF-8"?>
<svg width="24px" height="24px" viewBox="0 0 24 24" version="1.1" xmlns="http://www.w3.org/2000/svg" xmlns:xlink="http://www.w3.org/1999/xlink">
    <!-- Generator: Sketch 50 (54983) - http://www.bohemiancoding.com/sketch -->
    <title>noun_534780_cc copy</title>
    <desc>Created with Sketch.</desc>
    <defs></defs>
    <g id="MAIN" stroke="none" stroke-width="1" fill="none" fill-rule="evenodd">
        <g id="Info_dashboard_verification_1" transform="translate(-941.000000, -983.000000)" fill="#004DFF" fill-rule="nonzero">
            <g id="noun_534780_cc-copy" transform="translate(940.000000, 983.000000)">
                <path d="M7.649,24.004 C5.944,24.004 4.24,23.356 2.942,22.058 C0.346,19.462 0.346,15.24 2.942,12.644 L13.636,1.95 C14.894,0.692 16.565,0 18.343,0 C20.121,0 21.793,0.693 23.05,1.95 C24.308,3.207 25,4.879 25,6.657 C25,8.435 24.308,10.107 23.05,11.364 L17.742,16.672 C16.886,17.528 15.747,18 14.535,18 C12.035,18 10,15.966 10,13.465 C10,12.253 10.472,11.114 11.329,10.257 L15.293,6.293 C15.684,5.902 16.316,5.902 16.707,6.293 C17.098,6.684 17.098,7.316 16.707,7.707 L12.743,11.671 C12.264,12.15 12,12.787 12,13.465 C12,14.862 13.137,16 14.535,16 C15.213,16 15.849,15.736 16.328,15.258 L21.636,9.95 C22.516,9.07 23,7.901 23,6.657 C23,5.413 22.516,4.244 21.636,3.364 C20.756,2.484 19.587,2 18.343,2 C17.1,2 15.93,2.485 15.05,3.364 L4.356,14.058 C2.541,15.873 2.541,18.829 4.356,20.644 C6.171,22.46 9.127,22.46 10.942,20.644 L11.293,20.293 C11.684,19.902 12.316,19.902 12.707,20.293 C13.098,20.684 13.098,21.316 12.707,21.707 L12.356,22.058 C11.059,23.355 9.354,24.004 7.649,24.004 Z" id="Shape"></path>
            </g>
        </g>
    </g>
</svg>