<?xml version="1.0" encoding="UTF-8"?>
<svg width="14px" height="8px" viewBox="0 0 14 8" version="1.1" xmlns="http://www.w3.org/2000/svg" xmlns:xlink="http://www.w3.org/1999/xlink">
    <!-- Generator: Sketch 50 (54983) - http://www.bohemiancoding.com/sketch -->
    <title>Group 4</title>
    <desc>Created with Sketch.</desc>
    <defs></defs>
    <g id="MAIN" stroke="none" stroke-width="1" fill="none" fill-rule="evenodd">
        <g id="Info_dashboard_transaction_history" transform="translate(-1066.000000, -1108.000000)" fill="#004DFF" fill-rule="nonzero">
            <g id="Group-12" transform="translate(637.000000, 1108.000000)">
                <g id="Group-5" transform="translate(387.000000, 0.000000)">
                    <g id="Group-4" transform="translate(42.000000, 0.000000)">
                        <path d="M5.83320958,1.5 L-0.833209578,1.5 C-1.07520059,1.5 -1.29852564,1.65618668 -1.41652125,1.90830527 C-1.53385023,2.16042387 -1.52718381,2.46883309 -1.39852192,2.71302343 L1.93468766,6.12737189 C2.05668313,6.35887701 2.27000854,6.5 2.5,6.5 C2.72999146,6.5 2.94331687,6.35887701 3.06531234,6.12737189 L6.39852192,2.71302343 C6.52718381,2.46883309 6.53385023,2.16042387 6.41652125,1.90830527 C6.29852564,1.65618668 6.07520059,1.5 5.83320958,1.5 Z" id="Shape-Copy-5" transform="translate(2.500000, 4.000000) rotate(-90.000000) translate(-2.500000, -4.000000) "></path>
                        <path d="M14.8332096,1.5 L8.16679042,1.5 C7.92479941,1.5 7.70147436,1.65618668 7.58347875,1.90830527 C7.46614977,2.16042387 7.47281619,2.46883309 7.60147808,2.71302343 L10.9346877,6.12737189 C11.0566831,6.35887701 11.2700085,6.5 11.5,6.5 C11.7299915,6.5 11.9433169,6.35887701 12.0653123,6.12737189 L15.3985219,2.71302343 C15.5271838,2.46883309 15.5338502,2.16042387 15.4165213,1.90830527 C15.2985256,1.65618668 15.0752006,1.5 14.8332096,1.5 Z" id="Shape-Copy-6" transform="translate(11.500000, 4.000000) rotate(-90.000000) translate(-11.500000, -4.000000) "></path>
                    </g>
                </g>
            </g>
        </g>
    </g>
</svg>