<?xml version="1.0" encoding="UTF-8"?>
<svg width="24px" height="14px" viewBox="0 0 24 14" version="1.1" xmlns="http://www.w3.org/2000/svg" xmlns:xlink="http://www.w3.org/1999/xlink">
    <!-- Generator: Sketch 50 (54983) - http://www.bohemiancoding.com/sketch -->
    <title>noun_534778_cc copy 2</title>
    <desc>Created with Sketch.</desc>
    <defs></defs>
    <g id="MAIN" stroke="none" stroke-width="1" fill="none" fill-rule="evenodd">
        <g id="Info_dashboard_security_settings_3" transform="translate(-434.000000, -371.000000)" fill="#004DFF" fill-rule="nonzero">
            <g id="noun_534778_cc-copy-2" transform="translate(434.000000, 371.000000)">
                <path d="M14,10 L10,10 C9.448,10 9,9.553 9,9 C9,8.447 9.448,8 10,8 L14,8 C15.654,8 17,6.654 17,5 C17,3.346 15.654,2 14,2 L5,2 C3.346,2 2,3.346 2,5 C2,5.953 2.464,6.859 3.243,7.426 C3.689,7.751 3.787,8.377 3.463,8.823 C3.138,9.268 2.512,9.367 2.066,9.043 C0.772,8.102 0,6.59 0,5 C0,2.243 2.243,0 5,0 L14,0 C16.757,0 19,2.243 19,5 C19,7.757 16.757,10 14,10 Z M19,14 L10,14 C7.243,14 5,11.757 5,9 C5,6.243 7.243,4 10,4 L14,4 C14.553,4 15,4.448 15,5 C15,5.552 14.553,6 14,6 L10,6 C8.346,6 7,7.346 7,9 C7,10.654 8.346,12 10,12 L19,12 C20.654,12 22,10.654 22,9 C22,8.048 21.535,7.141 20.757,6.574 C20.311,6.249 20.212,5.623 20.537,5.177 C20.86,4.73 21.486,4.631 21.934,4.957 C23.228,5.898 24,7.41 24,9 C24,11.757 21.757,14 19,14 Z" id="Shape"></path>
            </g>
        </g>
    </g>
</svg>