<?xml version="1.0" encoding="UTF-8"?>
<svg width="24px" height="14px" viewBox="0 0 24 14" version="1.1" xmlns="http://www.w3.org/2000/svg" xmlns:xlink="http://www.w3.org/1999/xlink">
    <!-- Generator: Sketch 50 (54983) - http://www.bohemiancoding.com/sketch -->
    <title>Shape</title>
    <desc>Created with Sketch.</desc>
    <defs></defs>
    <g id="MAIN" stroke="none" stroke-width="1" fill="none" fill-rule="evenodd">
        <g id="Info_dashboard_my_orders_1" transform="translate(-430.000000, -658.000000)" fill="#004DFF" fill-rule="nonzero">
            <g id="Group-3" transform="translate(368.000000, 122.000000)">
                <path d="M76,546 L72,546 C71.448,546 71,545.553 71,545 C71,544.447 71.448,544 72,544 L76,544 C77.654,544 79,542.654 79,541 C79,539.346 77.654,538 76,538 L67,538 C65.346,538 64,539.346 64,541 C64,541.953 64.464,542.859 65.243,543.426 C65.689,543.751 65.787,544.377 65.463,544.823 C65.138,545.268 64.512,545.367 64.066,545.043 C62.772,544.102 62,542.59 62,541 C62,538.243 64.243,536 67,536 L76,536 C78.757,536 81,538.243 81,541 C81,543.757 78.757,546 76,546 Z M81,550 L72,550 C69.243,550 67,547.757 67,545 C67,542.243 69.243,540 72,540 L76,540 C76.553,540 77,540.448 77,541 C77,541.552 76.553,542 76,542 L72,542 C70.346,542 69,543.346 69,545 C69,546.654 70.346,548 72,548 L81,548 C82.654,548 84,546.654 84,545 C84,544.048 83.535,543.141 82.757,542.574 C82.311,542.249 82.212,541.623 82.537,541.177 C82.86,540.73 83.486,540.631 83.934,540.957 C85.228,541.898 86,543.41 86,545 C86,547.757 83.757,550 81,550 Z" id="Shape"></path>
            </g>
        </g>
    </g>
</svg>