<svg xmlns="http://www.w3.org/2000/svg" xmlns:xlink="http://www.w3.org/1999/xlink" width="28" height="28" viewBox="0 0 28 28"><defs><path id="q7a0a" d="M39.17 593.83v-4.66h4.66a1.17 1.17 0 1 0 0-2.34h-4.66v-4.66a1.17 1.17 0 0 0-2.34 0v4.66h-4.66a1.17 1.17 0 0 0 0 2.34h4.66v4.66a1.17 1.17 0 1 0 2.34 0zm10.5-5.83a11.68 11.68 0 0 1-23.33 0c0-6.43 5.23-11.67 11.66-11.67s11.67 5.24 11.67 11.67zm2.33 0c0-7.72-6.28-14-14-14s-14 6.28-14 14 6.28 14 14 14 14-6.28 14-14z"/></defs><g><g transform="translate(-24 -574)"><use fill="#fff" xlink:href="#q7a0a"/></g></g></svg>