<?xml version="1.0" encoding="UTF-8"?>
<svg width="24px" height="23px" viewBox="0 0 24 23" version="1.1" xmlns="http://www.w3.org/2000/svg" xmlns:xlink="http://www.w3.org/1999/xlink">
    <!-- Generator: Sketch 50 (54983) - http://www.bohemiancoding.com/sketch -->
    <title>noun_534730_cc</title>
    <desc>Created with Sketch.</desc>
    <defs></defs>
    <g id="MAIN" stroke="none" stroke-width="1" fill="none" fill-rule="evenodd">
        <g id="Confirmation_modal" transform="translate(-704.000000, -304.000000)" fill="#FFFFFF" fill-rule="nonzero">
            <g id="noun_534730_cc" transform="translate(704.000000, 304.000000)">
                <g id="Group">
                    <path d="M8,23 C7.856,23 7.711,22.969 7.576,22.905 C7.225,22.741 7,22.388 7,22 L7,18 L1.997,18 C0.896,18 -2.22044605e-16,17.104 -2.22044605e-16,16.004 L-2.22044605e-16,1.996 C-2.22044605e-16,0.896 0.896,2.22044605e-15 1.996,2.22044605e-15 L22.004,2.22044605e-15 C23.104,2.22044605e-15 24,0.896 24,1.996 L24,16.004 C24,17.104 23.104,18 22.004,18 L14.362,18 L8.64,22.769 C8.457,22.921 8.229,23 8,23 Z M8,16 C8.552,16 9,16.447 9,17 L9,19.865 L13.359,16.231 C13.539,16.082 13.766,16 14,16 L22.004,16 L22,1.996 L1.996,2 L2,16.004 L8,16 Z" id="Shape"></path>
                    <circle id="Oval" cx="8" cy="9" r="1"></circle>
                    <circle id="Oval" cx="12" cy="9" r="1"></circle>
                    <circle id="Oval" cx="16" cy="9" r="1"></circle>
                </g>
            </g>
        </g>
    </g>
</svg>