<?xml version="1.0" encoding="UTF-8"?>
<svg width="97px" height="111px" viewBox="0 0 97 111" version="1.1" xmlns="http://www.w3.org/2000/svg" xmlns:xlink="http://www.w3.org/1999/xlink">
    <!-- Generator: Sketch 50 (54983) - http://www.bohemiancoding.com/sketch -->
    <title>noun_534795_cc</title>
    <desc>Created with Sketch.</desc>
    <defs></defs>
    <g id="MAIN" stroke="none" stroke-width="1" fill="none" fill-rule="evenodd">
        <g id="Attention_modal" transform="translate(-911.000000, -295.000000)" fill="#FFFFFF" fill-rule="nonzero">
            <g id="noun_534795_cc" transform="translate(911.000000, 295.000000)">
                <g id="Group">
                    <path d="M10.9133818,97.07875 C8.89578182,97.07875 7.0616,95.686625 6.51134545,93.744125 C1.14636364,74.60125 0,57.35 0,46.25 C0,35.9825 3.25567273,26.27 9.44603636,18.13 C10.9592364,16.1875 13.9397818,15.77125 15.8656727,17.2975 C17.8832727,18.82375 18.2501091,21.7375 16.7369091,23.7725 C11.7846182,30.29375 9.17090909,38.06375 9.17090909,46.25 C9.17090909,56.74875 10.2255636,73.12125 15.3154182,91.205 C16.0032364,93.65625 14.5817455,96.2 12.1514545,96.94 L10.9133818,97.07875 Z M91.7090909,77.56125 C89.73276,77.56125 87.9902873,76.270875 87.3529091,74.41625 C84.8309091,67.01625 82.5381818,58.50625 82.5381818,46.25 C82.5381818,34.45625 77.12276,23.63375 67.6813091,16.51125 C66.7183636,15.8175 66.0764,14.7075 65.8929818,13.505 C65.7095636,12.25625 66.02596,11.05375 66.7596327,10.0825 C68.1857091,8.09375 71.1616691,7.63125 73.138,9.11125 C84.7850545,17.80625 91.7090909,31.68125 91.7090909,46.25 C91.7090909,57.72 93.8642545,64.98125 96.0652727,71.405375 C96.8448,73.815 95.6021418,76.45125 93.1718509,77.28375 C92.7178909,77.46875 92.2089055,77.56125 91.7090909,77.56125 Z M23.1106909,16.14125 C21.5516364,16.14125 20.1301455,15.40125 19.3047636,14.06 C18.6169455,13.0425 18.3876727,11.84 18.6169455,10.59125 C18.8462182,9.38875 19.5340364,8.37125 20.5886909,7.6775 C27.6961455,2.91375 35.9958182,0.2775 44.5706182,2.22044605e-16 L44.6623273,2.22044605e-16 C47.1843273,2.22044605e-16 49.2019273,1.98875 49.2477818,4.5325 C49.2936364,5.735 48.8350909,6.9375 48.0097091,7.81625 C47.1384727,8.695 46.0379636,9.25 44.7998909,9.25 C37.9675636,9.435 31.3645091,11.5625 25.6326909,15.40125 C24.8990182,15.91 24.0277818,16.14125 23.1106909,16.14125 Z M58.2352727,11.14625 C57.7721418,11.14625 57.2723273,11.1 56.8550509,10.96125 C55.6628327,10.59125 54.7457418,9.75875 54.1496327,8.695 C53.5993782,7.585 53.5076691,6.33625 53.8745055,5.13375 C54.6081782,2.775 57.1760327,1.3875 59.5604691,2.1275 L59.6063236,2.1275 C62.0366145,2.91375 63.3618109,5.50375 62.5822836,7.90875 C61.9953455,9.85125 60.2528727,11.14625 58.2352727,11.14625 Z M29.3010545,108.294375 C27.4989709,108.294375 25.7931818,107.221375 25.0640945,105.44075 C20.4052727,94.1095 17.1312582,81.733 15.3200036,68.6535 C14.9669236,66.119 16.7185673,63.783375 19.2268109,63.431875 C21.7075418,63.043375 24.0507091,64.8425 24.3992036,67.372375 C26.1049927,79.674875 29.1772473,91.292875 33.5334291,101.902625 C34.50096,104.261375 33.39128,106.967 31.0526982,107.9475 C30.4795164,108.183375 29.8879927,108.294375 29.3010545,108.294375 Z M80.8782473,88.837 C79.1311891,88.837 77.4620836,87.824125 76.6963127,86.1175 C69.8135455,70.7625 68.7818182,54.54725 68.7818182,46.25 C68.7818182,33.498875 58.4966436,23.125 45.8545455,23.125 C33.2124473,23.125 22.9272727,33.498875 22.9272727,46.25 C22.9272727,48.483875 22.9777127,51.0785 23.1290327,53.9645 C23.2620109,56.5175 21.3177782,58.69125 18.7911927,58.825375 C16.2737782,58.908625 14.1048582,56.9985 13.97188,54.450125 C13.8113891,51.3745 13.7563636,48.622625 13.7563636,46.245375 C13.7563636,28.3975 28.1546909,13.875 45.8545455,13.875 C63.5498145,13.875 77.9527273,28.3975 77.9527273,46.25 C77.9527273,53.802625 78.8744036,68.528625 85.0510109,82.3065 C86.0964945,84.632875 85.0693527,87.3755 82.7628691,88.425375 C82.1484182,88.7075 81.5064545,88.837 80.8782473,88.837 Z M72.8949709,103.253125 C71.3496727,103.253125 69.8410582,102.46225 68.9789927,101.03775 C57.0063709,81.228875 55.0988218,58.6265 55.0254545,46.916 C54.9979418,41.759125 51.1553309,37.32375 46.4598255,37.023125 C43.8965564,36.865875 41.4433382,37.74 39.5816436,39.50675 C37.7107782,41.2735 36.6836364,43.66925 36.6836364,46.25 C36.6836364,51.110875 36.97252,58.779125 38.3481564,67.714625 C39.5082764,75.26725 41.5304618,83.065 44.3505164,90.8905 C45.2125818,93.2955 43.9882655,95.945625 41.6084145,96.815125 C39.2285636,97.693875 36.5965127,96.44975 35.7298618,94.049375 C32.7080473,85.66425 30.5391273,77.279125 29.2827127,69.129875 C27.8199527,59.61625 27.5127273,51.43925 27.5127273,46.25 C27.5127273,41.157875 29.6220364,36.2415 33.3041564,32.758875 C37.0321309,29.225375 41.8835418,27.46325 47.0421782,27.787 C56.6028509,28.3975 64.1413382,36.778 64.1963636,46.8605 C64.2651455,57.609 65.9892764,78.324375 76.8063636,96.223125 C78.1269745,98.406125 77.4437418,101.2505 75.2794073,102.577875 C74.5365636,103.03575 73.7111818,103.253125 72.8949709,103.253125 Z M59.8952073,108.669 C58.2261018,108.669 56.6166073,107.748625 55.8049818,106.14375 L53.9387018,102.448375 C51.0361091,96.8105 48.57372,90.62225 46.6294873,84.09175 C45.9004,81.64975 47.2760364,79.069 49.7017418,78.333625 C52.1366182,77.6075 54.6861309,78.990375 55.4152182,81.437 C57.1943745,87.4125 59.4412473,93.059625 62.0962255,98.2165 L63.9762618,101.94425 C65.1272109,104.21975 64.2330473,107.004 61.9724182,108.164875 C61.3075273,108.507125 60.5967818,108.669 59.8952073,108.669 Z M47.8538036,73.893625 C45.6711273,73.893625 43.7360655,72.3165 43.3417164,70.073375 C41.6313418,60.314625 41.2690909,51.730625 41.2690909,46.25 C41.2690909,43.697 43.3233745,41.625 45.8545455,41.625 C48.3857164,41.625 50.44,43.697 50.44,46.25 C50.44,51.360625 50.7747382,59.361875 52.3704764,68.463875 C52.8152655,70.97525 51.14616,73.375625 48.6562582,73.819625 L47.8538036,73.893625 Z" id="Shape"></path>
                    <ellipse id="Oval" cx="45.8545455" cy="106.375" rx="4.58545455" ry="4.625"></ellipse>
                </g>
            </g>
        </g>
    </g>
</svg>