<?xml version="1.0" encoding="UTF-8"?>
<svg width="23px" height="23px" viewBox="0 0 23 23" version="1.1" xmlns="http://www.w3.org/2000/svg" xmlns:xlink="http://www.w3.org/1999/xlink">
    <!-- Generator: Sketch 50 (54983) - http://www.bohemiancoding.com/sketch -->
    <title>In</title>
    <desc>Created with Sketch.</desc>
    <defs></defs>
    <g id="MAIN" stroke="none" stroke-width="1" fill="none" fill-rule="evenodd">
        <g id="Main_exchng_dashboard_screen-Copy-2" transform="translate(-1872.000000, -77.000000)" fill="#004DFF" fill-rule="nonzero">
            <g id="noun_1363596_cc-copy" transform="translate(1872.000000, 77.000000)">
                <g id="In">
                    <path d="M13.77125,17.39375 C13.225,17.39375 12.765,17.85375 12.765,18.4 L12.765,20.7 C12.765,20.78625 12.7075,20.84375 12.62125,20.84375 L2.32875,20.84375 C2.2425,20.84375 2.185,20.78625 2.185,20.7 L2.185,2.3 C2.185,2.21375 2.2425,2.15625 2.32875,2.15625 L12.62125,2.15625 C12.7075,2.15625 12.765,2.21375 12.765,2.3 L12.765,4.6 C12.765,5.14625 13.225,5.60625 13.77125,5.60625 C14.3175,5.60625 14.7775,5.14625 14.7775,4.6 L14.7775,2.3 C14.7775,1.12125 13.8,0.14375 12.62125,0.14375 L2.32875,0.14375 C1.15,0.14375 0.1725,1.12125 0.1725,2.3 L0.1725,20.7 C0.1725,21.87875 1.15,22.85625 2.32875,22.85625 L12.62125,22.85625 C13.8,22.85625 14.7775,21.87875 14.7775,20.7 L14.7775,18.4 C14.7775,17.85375 14.3175,17.39375 13.77125,17.39375 Z" id="Shape"></path>
                    <path d="M22.54,10.81 C22.54,10.78125 22.54,10.78125 22.54,10.81 L17.825,6.1525 C17.4225,5.75 16.79,5.77875 16.3875,6.1525 C15.985,6.555 16.01375,7.1875 16.3875,7.59 L19.34875,10.49375 L6.69875,10.49375 C6.1525,10.49375 5.6925,10.95375 5.6925,11.5 C5.6925,12.04625 6.1525,12.50625 6.69875,12.50625 L19.34875,12.50625 L16.41625,15.41 C16.01375,15.8125 16.01375,16.445 16.41625,16.8475 C16.81875,17.25 17.45125,17.25 17.85375,16.8475 L22.54,12.21875 C22.9425,11.845 22.9425,11.18375 22.54,10.81 Z" id="Shape" transform="translate(14.267188, 11.505341) scale(-1, 1) translate(-14.267188, -11.505341) "></path>
                </g>
            </g>
        </g>
    </g>
</svg>