<?xml version="1.0" encoding="UTF-8"?>
<svg width="24px" height="24px" viewBox="0 0 24 24" version="1.1" xmlns="http://www.w3.org/2000/svg" xmlns:xlink="http://www.w3.org/1999/xlink">
    <!-- Generator: Sketch 50 (54983) - http://www.bohemiancoding.com/sketch -->
    <title>noun_564971_cc</title>
    <desc>Created with Sketch.</desc>
    <defs></defs>
    <g id="MAIN" stroke="none" stroke-width="1" fill="none" fill-rule="evenodd">
        <g id="Exchange_dashboard_main_close_side" transform="translate(-38.000000, -959.000000)" fill="#FFFFFF" fill-rule="nonzero">
            <g id="noun_564971_cc" transform="translate(38.000000, 959.000000)">
                <path d="M19.5,24 C17.019,24 15,21.953 15,19.438 L15,16.876 L9,16.876 L9,19.438 C9,21.953 6.981,24 4.5,24 C2.019,24 0,21.953 0,19.438 C0,16.923 2.019,14.876 4.5,14.876 L7,14.876 L7,9.126 L4.5,9.126 C2.019,9.125 0,7.078 0,4.562 C0,2.046 2.019,-1.77635684e-15 4.5,-1.77635684e-15 C6.981,-1.77635684e-15 9,2.047 9,4.562 L9,7.124 L15,7.124 L15,4.562 C15,2.047 17.019,-1.77635684e-15 19.5,-1.77635684e-15 C21.981,-1.77635684e-15 24,2.047 24,4.562 C24,7.077 21.981,9.124 19.5,9.124 L17,9.124 L17,14.874 L19.5,14.874 C21.981,14.874 24,16.921 24,19.436 C24,21.951 21.981,24 19.5,24 Z M17,16.875 L17,19.437 C17,20.851 18.121,22 19.5,22 C20.879,22 22,20.851 22,19.438 C22,18.025 20.879,16.876 19.5,16.876 L17,16.876 L17,16.875 Z M4.5,16.875 C3.122,16.875 2,18.024 2,19.437 C2,20.85 3.122,22 4.5,22 C5.878,22 7,20.851 7,19.438 L7,16.876 L4.5,16.876 L4.5,16.875 Z M9,14.875 L15,14.875 L15,9.125 L9,9.125 L9,14.875 Z M17,7.125 L19.5,7.125 C20.879,7.125 22,5.976 22,4.563 C22,3.15 20.879,2 19.5,2 C18.121,2 17,3.149 17,4.562 L17,7.125 Z M4.5,2 C3.122,2 2,3.149 2,4.562 C2,5.975 3.122,7.124 4.5,7.124 L7,7.124 L7,4.562 C7,3.149 5.878,2 4.5,2 Z" id="Shape"></path>
            </g>
        </g>
    </g>
</svg>