<?xml version="1.0" encoding="UTF-8"?>
<svg width="24px" height="18px" viewBox="0 0 24 18" version="1.1" xmlns="http://www.w3.org/2000/svg" xmlns:xlink="http://www.w3.org/1999/xlink">
    <!-- Generator: Sketch 50 (54983) - http://www.bohemiancoding.com/sketch -->
    <title>noun_534793_cc</title>
    <desc>Created with Sketch.</desc>
    <defs></defs>
    <g id="MAIN" stroke="none" stroke-width="1" fill="none" fill-rule="evenodd">
        <g id="WIDGETS" transform="translate(-896.000000, -138.000000)" fill="#000000" fill-rule="nonzero">
            <g id="Group-26" transform="translate(158.000000, 125.000000)">
                <g id="noun_534793_cc" transform="translate(738.000000, 13.000000)">
                    <path d="M16.206,10.407 C15.997,10.407 15.787,10.342 15.606,10.207 C15.165,9.875 15.076,9.249 15.407,8.807 L19.009,4.008 C19.34,3.566 19.966,3.476 20.409,3.808 C20.85,4.14 20.939,4.766 20.608,5.208 L17.006,10.007 C16.811,10.269 16.51,10.407 16.206,10.407 Z M13.335,10.891 C13.145,10.891 12.952,10.837 12.781,10.723 L10.109,8.942 C9.65,8.635 9.526,8.014 9.832,7.555 C10.138,7.096 10.759,6.97 11.219,7.278 L13.891,9.059 C14.351,9.365 14.475,9.986 14.168,10.446 C13.976,10.734 13.658,10.891 13.335,10.891 Z M3,18 C1.346,18 0,16.654 0,15 C0,13.346 1.346,12 3,12 C4.654,12 6,13.346 6,15 C6,16.654 4.654,18 3,18 Z M3,14 C2.449,14 2,14.448 2,15 C2,15.552 2.449,16 3,16 C3.551,16 4,15.552 4,15 C4,14.448 3.551,14 3,14 Z M15,14 C13.346,14 12,12.654 12,11 C12,9.346 13.346,8 15,8 C16.654,8 18,9.346 18,11 C18,12.654 16.654,14 15,14 Z M15,10 C14.448,10 14,10.449 14,11 C14,11.551 14.448,12 15,12 C15.552,12 16,11.551 16,11 C16,10.449 15.552,10 15,10 Z M9,10 C7.346,10 6,8.654 6,7 C6,5.346 7.346,4 9,4 C10.654,4 12,5.346 12,7 C12,8.654 10.654,10 9,10 Z M9,6 C8.449,6 8,6.449 8,7 C8,7.551 8.449,8 9,8 C9.551,8 10,7.551 10,7 C10,6.449 9.551,6 9,6 Z M21,6 C19.346,6 18,4.654 18,3 C18,1.346 19.346,0 21,0 C22.654,0 24,1.346 24,3 C24,4.654 22.654,6 21,6 Z M21,2 C20.448,2 20,2.449 20,3 C20,3.551 20.448,4 21,4 C21.552,4 22,3.551 22,3 C22,2.449 21.552,2 21,2 Z M4.499,14 C4.291,14 4.08,13.935 3.9,13.8 C3.458,13.469 3.369,12.842 3.7,12.4 L6.7,8.4 C7.031,7.96 7.658,7.868 8.1,8.2 C8.542,8.531 8.631,9.158 8.3,9.6 L5.3,13.6 C5.104,13.862 4.803,14 4.499,14 Z" id="Shape"></path>
                </g>
            </g>
        </g>
    </g>
</svg>