<svg xmlns="http://www.w3.org/2000/svg" xmlns:xlink="http://www.w3.org/1999/xlink" width="24" height="18" viewBox="0 0 24 18"><defs><path id="vtnpa" d="M900.5 152a1 1 0 0 0 .8-.4l.2-.26a3 3 0 1 1-1.6-1.2l-.2.26a1 1 0 0 0 .8 1.6zm2-5.34c.38.57.94 1 1.6 1.2l-2.6 3.48c-.38-.57-.94-1-1.6-1.2zm0 0a3 3 0 1 1 5.4-.93l-.68-.45a1 1 0 0 0-1.11 1.66l.69.46a2.98 2.98 0 0 1-2.7.46l.2-.26a1 1 0 0 0-1.6-1.2zM917 140a1 1 0 1 0 0 2 1 1 0 0 0 0-2zm0 4c-.3 0-.6-.05-.89-.13l.5-.66a1 1 0 0 0-1.6-1.2l-.5.66A3 3 0 1 1 917 144zm-12 0a1 1 0 1 0 0 2 1 1 0 0 0 0-2zm6 4a1 1 0 0 0-.78.37 1 1 0 0 0-.32-1.31l-.7-.46a2.98 2.98 0 0 1 2.7-.46l-.5.67a1 1 0 0 0 .17 1.37 1 1 0 0 0-.57-.18zm3 1a3 3 0 1 1-5.9-.74l.69.46a1 1 0 0 0 1.33-.2 1 1 0 1 0 1.51-.3 1 1 0 0 0 1.38-.21l.5-.66c.3.47.49 1.04.49 1.65zm-15 3a1 1 0 1 0 0 2 1 1 0 0 0 0-2zm11.12-3.48a1 1 0 0 1 .1-.15 1.02 1.02 0 0 1-.1.15zm-.91-1.92a3 3 0 0 0-1.12 1.66l-1.3-.86a3 3 0 0 0 1.12-1.67zm2.4 1.6zm4.5-4.33a3.01 3.01 0 0 1-1.6-1.2l-2.6 3.47c.66.21 1.22.64 1.6 1.2z"/></defs><g><g transform="translate(-896 -138)"><use xlink:href="#vtnpa"/></g></g></svg>