<svg xmlns="http://www.w3.org/2000/svg" xmlns:xlink="http://www.w3.org/1999/xlink" width="121" height="15" viewBox="0 0 121 15"><defs><path id="57p1a" d="M30.31 21h5.47l4.31 12.96V36h-3.3l-.78-2.42h-5.93L29.3 36H26v-2.04zm2.74 3.2l-2.23 6.7h4.48zM59.82 21v3.22H55.4V36h-3.77V24.22h-4.44V21zm13 0v11.78h6.1V36h-9.86V21zm18.88 0h5.47l4.3 12.96V36h-3.3l-.77-2.42h-5.93L90.69 36h-3.3v-2.04zm2.73 3.2l-2.23 6.7h4.48zm30.7 11.8h-3.92l-6.48-10.43V36h-3.49V21h3.93l6.48 10.46V21h3.47zM147 21v3.22h-4.44V36h-3.76V24.22h-4.44V21z"/></defs><g><g transform="translate(-26 -21)"><use fill="#fff" xlink:href="#57p1a"/></g></g></svg>