<svg xmlns="http://www.w3.org/2000/svg" xmlns:xlink="http://www.w3.org/1999/xlink" width="17" height="17" viewBox="0 0 17 17"><defs><path id="4gvfa" d="M1516.18 34.86c-.4 0-.74.34-.74.74v1.7c0 .07-.05.11-.1.11h-7.62c-.06 0-.1-.04-.1-.1V23.7c0-.07.04-.11.1-.11h7.61c.07 0 .1.04.1.1v1.7c0 .4.35.75.75.75s.75-.34.75-.75v-1.7c0-.87-.73-1.59-1.6-1.59h-7.6c-.88 0-1.6.72-1.6 1.6v13.6c0 .86.72 1.59 1.6 1.59h7.6c.87 0 1.6-.72 1.6-1.6v-1.7c0-.4-.34-.74-.75-.74z"/><path id="4gvfb" d="M1522.66 29.99c0-.02 0-.02 0 0l-3.48-3.44a.76.76 0 0 0-1.07 0c-.3.3-.27.76 0 1.06l2.2 2.14h-9.36c-.4 0-.74.34-.74.75 0 .4.34.74.74.74h9.35l-2.16 2.15c-.3.3-.3.76 0 1.06.3.3.76.3 1.06 0l3.46-3.42c.3-.28.3-.77 0-1.04z"/></defs><g><g transform="translate(-1506 -22)"><use fill="#fff" xlink:href="#4gvfa"/></g><g transform="translate(-1506 -22)"><use fill="#fff" xlink:href="#4gvfb"/></g></g></svg>