<svg xmlns="http://www.w3.org/2000/svg" xmlns:xlink="http://www.w3.org/1999/xlink" width="24" height="24" viewBox="0 0 24 24"><defs><path id="w17wa" d="M310.17 511c-.71 0-1.38-.37-1.78-1a2.42 2.42 0 0 1-.18-2.3l1.96-4.38a2.17 2.17 0 0 1 1.96-1.32h1.62a1 1 0 1 1 0 2h-1.62c-.04 0-.1.05-.13.13l-1.96 4.38a.43.43 0 0 0 .03.4l.1.09h19.66l.1-.08c.06-.09.1-.25.03-.4l-1.95-4.39c-.05-.1-.1-.13-.14-.13h-1.62a1 1 0 1 1 0-2h1.62c.84 0 1.6.52 1.96 1.31l1.96 4.39c.34.75.27 1.62-.18 2.3-.4.63-1.07 1-1.78 1zm9.83-22a5.07 5.07 0 0 0-5.07 5.07c0 2.02 1.39 3.87 2.85 5.83.8 1.06 1.6 2.14 2.22 3.3a27.16 27.16 0 0 1 2.21-3.28c1.47-1.96 2.86-3.81 2.86-5.85 0-2.8-2.27-5.07-5.07-5.07zm0 18a1 1 0 0 1-.98-.8c-.35-1.77-1.56-3.39-2.84-5.1-1.6-2.14-3.25-4.35-3.25-7.03a7.08 7.08 0 0 1 14.14 0c0 2.7-1.66 4.91-3.26 7.05-1.27 1.7-2.48 3.31-2.83 5.08a1 1 0 0 1-.98.8zm0-14a1 1 0 1 0 0 2 1 1 0 0 0 0-2zm0 4a3 3 0 1 1 0-6 3 3 0 0 1 0 6z"/></defs><g><g transform="translate(-308 -487)"><use fill="#fff" xlink:href="#w17wa"/></g></g></svg>