<?xml version="1.0" encoding="UTF-8"?>
<svg width="73px" height="80px" viewBox="0 0 73 80" version="1.1" xmlns="http://www.w3.org/2000/svg" xmlns:xlink="http://www.w3.org/1999/xlink">
    <!-- Generator: Sketch 46.2 (44496) - http://www.bohemiancoding.com/sketch -->
    <title>pass_icon</title>
    <desc>Created with Sketch.</desc>
    <defs></defs>
    <g id="Page-1" stroke="none" stroke-width="1" fill="none" fill-rule="evenodd">
        <g id="pass_icon" fill-rule="nonzero" fill="#000000">
            <g id="Group">
                <g id="Shape">
                    <g>
                        <path d="M10.511848,12.5 C17.020888,4.83538462 26.543208,0.00153846154 37.151848,0.00153846154 C54.752008,0.00153846154 69.362568,13.3061538 72.180488,30.7676923 L63.131768,30.7676923 C60.441128,18.4384615 49.829528,9.23230771 37.151848,9.23230771 C27.913688,9.23230771 19.776648,14.1153846 14.999208,21.54 L28.271848,21.54 L28.271848,30.7676923 L1.631848,30.7676923 L1.631848,26.1523077 L1.631848,3.07538462 L10.511848,3.07538462 L10.511848,12.5 Z"></path>
                        <path d="M17.790488,70.4163074 C12.876888,70.4163074 8.880888,66.2624617 8.880888,61.1547691 C8.880888,56.0470769 12.876888,51.8901538 17.790488,51.8901538 C22.704088,51.8901538 26.703048,56.0470769 26.703048,61.1547691 C26.703048,66.2624617 22.704088,70.4163074 17.790488,70.4163074 L17.790488,70.4163074 Z M34.484888,54.8132307 C31.992568,47.7270769 25.471688,42.6593846 17.790488,42.6593846 C7.966248,42.6593846 0.000888,50.9393846 0.000888,61.1547691 C0.000888,71.3670771 7.966248,79.6470771 17.790488,79.6470771 C26.667528,79.6470771 34.005368,72.8809229 35.343288,64.044 L63.300488,64.044 L63.300488,72.2378463 L72.180488,72.2378463 L72.180488,54.8132307 L34.484888,54.8132307 Z"></path>
                    </g>
                </g>
            </g>
        </g>
    </g>
</svg>