<svg xmlns="http://www.w3.org/2000/svg" xmlns:xlink="http://www.w3.org/1999/xlink" width="12" height="11" viewBox="0 0 12 11"><defs><path id="s0hza" d="M787.14 409.02h5.39v5.1h-5.39zm1.1 4.06h3.2v-3.03h-3.2z"/><path id="s0hzb" d="M788.8 412.54v-1.95h2.06v1.95z"/><path id="s0hzc" d="M787.14 414.89h5.39v5.1h-5.39zm1.1 4.06h3.2v-3.03h-3.2z"/><path id="s0hzd" d="M798.86 409.02v5.1h-5.39v-5.1zm-1.1 4.06v-3.03h-3.2v3.03z"/><path id="s0hze" d="M793.47 415.98v-1.09h3.57v1.09z"/><path id="s0hzf" d="M793.47 419.98v-3.52h1.15v3.52z"/><path id="s0hzg" d="M797.64 418.22h-1.4v.67h-1.19v1.1h1.3v-.68h1.21v.67h1.3v-1.09h-1.22z"/><path id="s0hzh" d="M797.71 416.44h-2.06v1.08h3.21v-2.63h-1.15z"/></defs><g><g transform="translate(-787 -409)"><use fill="#fff" xlink:href="#s0hza"/></g><g transform="translate(-787 -409)"><use fill="#fff" xlink:href="#s0hzb"/></g><g transform="translate(-787 -409)"><use fill="#fff" xlink:href="#s0hzc"/></g><g transform="translate(-787 -409)"><use fill="#fff" xlink:href="#s0hzd"/></g><g transform="translate(-787 -409)"><use fill="#fff" xlink:href="#s0hze"/></g><g transform="translate(-787 -409)"><use fill="#fff" xlink:href="#s0hzf"/></g><g transform="translate(-787 -409)"><use fill="#fff" xlink:href="#s0hzg"/></g><g transform="translate(-787 -409)"><use fill="#fff" xlink:href="#s0hzh"/></g></g></svg>