<svg xmlns="http://www.w3.org/2000/svg" xmlns:xlink="http://www.w3.org/1999/xlink" width="24" height="24" viewBox="0 0 24 24"><defs><path id="sgoua" d="M312.5 296a1 1 0 0 0 .8-.4l.2-.26a3 3 0 1 1-1.6-1.2l-.2.26a1 1 0 0 0 .8 1.6zm2-5.34c.38.57.94 1 1.6 1.2l-2.6 3.48c-.38-.57-.94-1-1.6-1.2zm0 0a3 3 0 1 1 5.4-.92l-.68-.46a1 1 0 1 0-1.11 1.66l.69.46a2.98 2.98 0 0 1-2.7.46l.2-.26a1 1 0 0 0-1.6-1.2zM331 306h-22a1 1 0 1 1 0-2h1v1a1 1 0 1 0 2 0v-1h4v1a1 1 0 1 0 2 0v-1h4v1a1 1 0 1 0 2 0v-1h4v1a1 1 0 1 0 2 0v-1h1a1 1 0 1 1 0 2zm-2-22a1 1 0 1 0 0 2 1 1 0 0 0 0-2zm0 4c-.3 0-.6-.05-.89-.13l.5-.66a1 1 0 0 0-1.6-1.2l-.5.66A3 3 0 1 1 329 288zm-12 0a1 1 0 1 0 0 2 1 1 0 0 0 0-2zm6 4a1 1 0 0 0-.83.44 1 1 0 0 0-.28-1.38l-.69-.46a2.98 2.98 0 0 1 2.7-.46l-.5.67a1 1 0 0 0 .17 1.37 1 1 0 0 0-.57-.18zm3 1a3 3 0 1 1-5.9-.74l.68.46a1 1 0 0 0 1.38-.26 1 1 0 1 0 1.47-.23 1 1 0 0 0 1.38-.22l.5-.66c.3.47.49 1.04.49 1.65zm4 11h-2v-14a1 1 0 1 1 2 0zm-19-8a1 1 0 1 0 0 2 1 1 0 0 0 0-2zm7 8h-2v-10a1 1 0 0 1 2 0zm6 0h-2v-6a1 1 0 1 1 2 0zm-12 0h-2v-2a1 1 0 1 1 2 0zm10.16-11.54zm-.96-1.86a3 3 0 0 0-1.1 1.66l-1.3-.86a3 3 0 0 0 1.1-1.66zm2.4 1.6zm4.51-4.33a3.01 3.01 0 0 1-1.6-1.2l-2.6 3.47c.66.21 1.22.64 1.6 1.2z"/></defs><g><g transform="translate(-308 -282)"><use fill="#fff" xlink:href="#sgoua"/></g></g></svg>