<?xml version="1.0" encoding="iso-8859-1"?>
<!-- Generator: Adobe Illustrator 18.0.0, SVG Export Plug-In . SVG Version: 6.00 Build 0)  -->
<!DOCTYPE svg PUBLIC "-//W3C//DTD SVG 1.1//EN" "http://www.w3.org/Graphics/SVG/1.1/DTD/svg11.dtd">
<svg version="1.1" id="Capa_1" xmlns="http://www.w3.org/2000/svg" xmlns:xlink="http://www.w3.org/1999/xlink" x="0px" y="0px"
	 viewBox="0 0 291.997 291.997" style="enable-background:new 0 0 291.997 291.997;" xml:space="preserve">
<g>
	<path d="M19.384,120.47l56.87-17.363l20.8,33.023l29.164-9.988L95.53,77.42c-3.605-5.726-10.597-8.328-17.072-6.352L10.624,91.779
		c-7.924,2.419-12.386,10.803-9.967,18.726C3.077,118.427,11.461,122.891,19.384,120.47z"/>
	<path d="M287.611,214.518l-0.003-0.003l-27.575-27.574c-5.857-5.859-15.355-5.857-21.213,0c-5.858,5.858-5.858,15.355,0,21.213
		l1.97,1.97h-61.674l-14.562-23.12l-29.164,9.988l22.755,36.126c2.747,4.36,7.539,7.006,12.692,7.006h69.955l-1.972,1.972
		c-5.858,5.858-5.858,15.356,0,21.213c5.856,5.858,15.354,5.859,21.213,0l27.575-27.576l0.003-0.003
		C293.497,229.844,293.421,220.326,287.611,214.518z"/>
	<path d="M182.094,154.353l32.224-80.362h26.474l-1.971,1.971c-5.939,5.938-5.746,15.468,0,21.213
		c5.859,5.858,15.355,5.858,21.213,0c10.461-10.461,16.382-16.382,27.575-27.575l0.003-0.003c5.931-5.929,5.749-15.465,0-21.213
		l-0.003-0.003c-10.943-10.943-17.248-17.248-27.575-27.574c-5.857-5.858-15.355-5.858-21.213,0c-5.743,5.742-5.943,15.271,0,21.213
		l1.971,1.971h-36.62c-6.129,0-11.642,3.729-13.923,9.417l-33.441,83.399l-94.163,32.25c-3.11,1.065-5.785,3.123-7.612,5.857
		L3.365,252.248c-4.602,6.889-2.749,16.203,4.14,20.806c6.897,4.609,16.21,2.739,20.806-4.14l48.85-73.119l95.871-32.834
		C177.161,161.546,180.469,158.404,182.094,154.353z"/>
</g>
<g>
</g>
<g>
</g>
<g>
</g>
<g>
</g>
<g>
</g>
<g>
</g>
<g>
</g>
<g>
</g>
<g>
</g>
<g>
</g>
<g>
</g>
<g>
</g>
<g>
</g>
<g>
</g>
<g>
</g>
</svg>
