<svg xmlns="http://www.w3.org/2000/svg" xmlns:xlink="http://www.w3.org/1999/xlink" width="14" height="13.76" viewBox="0 0 14 13.76"><defs><path id="gm4wa" d="M255 212.88v4.23c0 1.76 1.5 3.17 3.36 3.17h2.52l-.74.7.94.9 2.32-2.22-2.34-2.2-.94.9.74.7h-2.5c-1.12-.02-2.04-.9-2.04-1.95v-4.23z"/><path id="gm4wb" d="M262.84 209.7h-2.52l.74-.7-.94-.88-2.32 2.2 2.32 2.2.94-.88-.74-.69h2.52c1.12 0 2.04.87 2.04 1.93v4.23h1.32v-4.23c0-1.76-1.5-3.17-3.36-3.17z"/></defs><g><g transform="translate(-254 -208.12)"><g><use fill="#fff" xlink:href="#gm4wa"/></g><g><use fill="#fff" xlink:href="#gm4wb"/></g></g></g></svg>