<svg xmlns="http://www.w3.org/2000/svg" xmlns:xlink="http://www.w3.org/1999/xlink" width="18" height="18" viewBox="0 0 18 18"><defs><path id="og86a" d="M234.97 169.97a6.96 6.96 0 0 1-4.96 2.05 6.96 6.96 0 0 1-4.96-2.05A6.96 6.96 0 0 1 223 165c0-1.87.73-3.63 2.05-4.96a6.96 6.96 0 0 1 4.96-2.05 7.02 7.02 0 0 1 4.96 11.97zm-1.27-8.65a5.19 5.19 0 0 0-7.38 0 5.2 5.2 0 0 0 0 7.39 5.19 5.19 0 0 0 7.38 0 5.23 5.23 0 0 0 0-7.4zm7.04 14.42a.89.89 0 0 1-1.26 0l-3.75-3.74a.9.9 0 1 1 1.27-1.27l3.74 3.75a.9.9 0 0 1 0 1.26z"/></defs><g><g transform="translate(-223 -158)"><use fill="#fff" xlink:href="#og86a"/></g></g></svg>