<svg xmlns="http://www.w3.org/2000/svg" xmlns:xlink="http://www.w3.org/1999/xlink" width="11" height="10" viewBox="0 0 11 10"><defs><path id="lceea" d="M745.4 484.36l-3.11-.22-1.18-2.76a.65.65 0 0 0-.61-.38c-.24 0-.5.13-.6.38l-1.19 2.76-3.1.22c-.57.03-.83.73-.38 1.1l2.4 1.9-.73 2.87c-.12.42.23.77.6.77.13 0 .24-.03.35-.1l2.61-1.57 2.66 1.57a.63.63 0 0 0 .96-.66l-.73-2.89 2.42-1.9c.45-.36.2-1.07-.38-1.1z"/></defs><g><g transform="translate(-735 -481)"><use fill="#044568" xlink:href="#lceea"/></g></g></svg>