<?xml version="1.0" encoding="UTF-8"?>
<svg width="126px" height="116px" viewBox="0 0 126 116" version="1.1" xmlns="http://www.w3.org/2000/svg" xmlns:xlink="http://www.w3.org/1999/xlink">
    <!-- Generator: Sketch 50 (54983) - http://www.bohemiancoding.com/sketch -->
    <title>noun_534746_cc</title>
    <desc>Created with Sketch.</desc>
    <defs></defs>
    <g id="MAIN" stroke="none" stroke-width="1" fill="none" fill-rule="evenodd">
        <g id="Deposite_crypto_(ok)_modal" transform="translate(-897.000000, -363.000000)" fill="#FFFFFF" fill-rule="nonzero">
            <g id="noun_534746_cc" transform="translate(897.000000, 363.000000)">
                <g id="Group">
                    <path d="M31.521,116 L10.479,116 C4.704,116 -4.4408921e-16,111.275636 -4.4408921e-16,105.475636 L-4.4408921e-16,36.888 C-4.4408921e-16,31.088 4.704,26.3636364 10.479,26.3636364 L31.521,26.3636364 C37.296,26.3636364 42,31.088 42,36.888 L42,105.475636 C42,111.275636 37.296,116 31.521,116 Z M31.521,105.454545 L31.521,110.727273 L31.521,105.454545 Z M31.5,36.888 L10.479,36.9090909 L10.5,105.475636 L31.50525,105.454545 L31.5,36.888 Z M99.099,105.454545 L36.75,105.454545 C33.852,105.454545 31.5,103.097636 31.5,100.181818 L31.5,42.1818182 C31.5,39.2712727 33.852,36.9090909 36.75,36.9090909 L52.5,36.9090909 C55.398,36.9090909 57.75,39.2712727 57.75,42.1818182 C57.75,45.0923636 55.398,47.4545455 52.5,47.4545455 L42,47.4545455 L42,94.9090909 L99.099,94.9090909 C100.905,94.9090909 102.606,93.9389091 103.53525,92.3834545 L114.765,73.5914545 C115.24275,72.7847273 115.5,71.862 115.5,70.9181818 L115.5,52.7483636 C115.5,49.8325455 113.1375,47.4545455 110.229,47.4545455 L78.75,47.4545455 C76.87575,47.4545455 75.138,46.4474545 74.19825,44.8129091 C73.26375,43.1783636 73.269,41.1641818 74.214,39.5349091 C80.91825,27.9401818 83.076,15.4490909 80.808,11.4998182 C80.56125,11.0727273 80.262,10.5454545 78.75,10.5454545 L74.76525,10.5454545 C73.9515,10.5454545 73.29,11.1465455 73.23225,11.948 C73.01175,14.848 70.4865,16.9887273 67.599,16.8041818 C64.70625,16.5827273 62.54325,14.0518182 62.76375,11.1465455 C63.23625,4.89836364 68.50725,2.66453526e-15 74.76525,2.66453526e-15 L78.75,2.66453526e-15 C83.643,2.66453526e-15 87.6015,2.21454545 89.90625,6.23763636 C94.1745,13.688 91.8645,26.0947273 87.2445,36.9090909 L110.229,36.9090909 C118.923,36.9090909 126,44.0167273 126,52.7483636 L126,70.9181818 C126,73.776 125.22825,76.5758182 123.7635,79.0223636 L112.53375,97.8090909 C109.71975,102.522909 104.57475,105.454545 99.099,105.454545 Z M52.5,47.4545455 L51.1455,47.2752727 C48.342,46.5212727 46.67775,43.6370909 47.4285,40.8214545 C49.5915,32.6856364 53.592,27.5394545 56.805,23.4109091 C60.039,19.2507273 62.37525,16.2505455 62.76375,11.1518182 C62.98425,8.24654545 65.5515,6.07945455 68.397,6.29563636 C71.28975,6.51709091 73.45275,9.048 73.2375,11.9532727 C72.6075,20.2367273 68.78025,25.1509091 65.08425,29.9069091 C62.04975,33.8034545 59.18325,37.4838182 57.57675,43.5421818 C56.94675,45.8990909 54.8205,47.4545455 52.5,47.4545455 Z" id="Shape"></path>
                    <ellipse id="Oval" cx="21" cy="94.9090909" rx="5.25" ry="5.27272727"></ellipse>
                </g>
            </g>
        </g>
    </g>
</svg>