<?xml version="1.0" encoding="UTF-8"?>
<svg width="22px" height="22px" viewBox="0 0 22 22" version="1.1" xmlns="http://www.w3.org/2000/svg" xmlns:xlink="http://www.w3.org/1999/xlink">
    <!-- Generator: Sketch 50 (54983) - http://www.bohemiancoding.com/sketch -->
    <title>noun_534855_cc</title>
    <desc>Created with Sketch.</desc>
    <defs></defs>
    <g id="MAIN" stroke="none" stroke-width="1" fill="none" fill-rule="evenodd">
        <g id="Exchange_dashboard_main_close_side_content_calendar" transform="translate(-38.000000, -1245.000000)" fill="#FFFFFF" fill-rule="nonzero">
            <g id="noun_534855_cc" transform="translate(38.000000, 1245.000000)">
                <path d="M21.0833333,22 L0.916666667,22 C0.410666667,22 0,21.59025 0,21.0833333 C0,15.52375 4.93441667,11 11,11 C17.0655833,11 22,15.52375 22,21.0833333 C22,21.59025 21.59025,22 21.0833333,22 Z M11,12.8333333 C7.46166667,12.8333333 4.58333333,9.955 4.58333333,6.41666667 C4.58333333,2.87833333 7.46166667,0 11,0 C14.5374167,0 17.4166667,2.87833333 17.4166667,6.41666667 C17.4166667,9.955 14.5374167,12.8333333 11,12.8333333 Z" id="Shape"></path>
            </g>
        </g>
    </g>
</svg>