<svg xmlns="http://www.w3.org/2000/svg" xmlns:xlink="http://www.w3.org/1999/xlink" width="19" height="19" viewBox="0 0 19 19"><defs><path id="rbxba" d="M1059 742.5a9.47 9.47 0 0 1-16.85 6.02 9.46 9.46 0 0 1-2.15-6.02c0-.46.38-.84.84-.84.47 0 .85.38.85.84 0 .84.15 1.67.44 2.47a11.12 11.12 0 0 1 4.4-2.36 4 4 0 1 1 5.97.08c1.07.32 2.09.8 3.04 1.46a.85.85 0 0 1-.97 1.39 9.23 9.23 0 0 0-4.5-1.58c-.19.02-.36.04-.55.04-.23 0-.44-.02-.65-.06a9.13 9.13 0 0 0-6.02 2.66 7.8 7.8 0 0 0 12.69.87 7.82 7.82 0 0 0-6.04-12.77 7.73 7.73 0 0 0-7.45 5.5.85.85 0 0 1-1.63-.49 9.44 9.44 0 0 1 9.08-6.71c5.24 0 9.5 4.26 9.5 9.5zm-11.82-2.53c0 1.1.78 2.02 1.81 2.26h.34c.21 0 .42 0 .63.02a2.35 2.35 0 0 0 1.86-2.28 2.32 2.32 0 0 0-2.32-2.33 2.32 2.32 0 0 0-2.32 2.33z"/></defs><g><g transform="translate(-1040 -733)"><use fill="#fff" xlink:href="#rbxba"/></g></g></svg>