<?xml version="1.0" encoding="UTF-8"?>
<svg width="80px" height="67px" viewBox="0 0 80 67" version="1.1" xmlns="http://www.w3.org/2000/svg" xmlns:xlink="http://www.w3.org/1999/xlink">
    <!-- Generator: Sketch 46.2 (44496) - http://www.bohemiancoding.com/sketch -->
    <title>wallet_icon</title>
    <desc>Created with Sketch.</desc>
    <defs></defs>
    <g id="Page-1" stroke="none" stroke-width="1" fill="none" fill-rule="evenodd">
        <g id="wallet_icon" fill-rule="nonzero" fill="#000000">
            <path d="M68.1988072,10.6560636 L6.92644135,10.6560636 L6.92644135,0 L68.332008,0 L68.332008,10.6560636 L68.1988072,10.6560636 Z M79.9204771,34.2326044 L79.9204771,45.9542744 C79.9204771,46.6202783 79.387674,47.1530815 78.72167,47.1530815 L65.0019881,47.1530815 C61.139165,47.1530815 57.9423459,43.9562624 57.9423459,40.0934394 C57.9423459,36.2306163 61.139165,33.0337972 65.0019881,33.0337972 L78.72167,33.0337972 C79.387674,33.0337972 79.9204771,33.5666004 79.9204771,34.2326044 Z M68.9980119,40.0934394 C68.9980119,38.2286282 67.5328032,36.8966203 65.8011928,36.8966203 C64.0695825,36.8966203 62.6043738,38.361829 62.6043738,40.0934394 C62.6043738,41.9582505 64.0695825,43.2902584 65.8011928,43.2902584 C67.5328032,43.2902584 68.9980119,41.9582505 68.9980119,40.0934394 Z M55.27833,38.8946322 C55.944334,33.9662028 60.3399602,30.3697813 65.2683897,30.3697813 L74.9920477,30.3697813 L74.9920477,15.1848907 C74.9920477,14.2524851 74.1928429,13.3200795 73.1272366,13.3200795 L1.86481113,13.3200795 C0.932405567,13.3200795 0,14.1192843 0,15.1848907 L0,65.1351889 C0,66.0675944 0.799204771,67 1.86481113,67 L73.2604374,67 C74.1928429,67 75.1252485,66.2007952 75.1252485,65.1351889 L75.1252485,49.9502982 L65.0019881,49.9502982 C59.1411531,49.9502982 54.4791252,44.7554672 55.27833,38.8946322 Z" id="Shape"></path>
        </g>
    </g>
</svg>