<svg xmlns="http://www.w3.org/2000/svg" xmlns:xlink="http://www.w3.org/1999/xlink" width="73" height="80" viewBox="0 0 73 80"><defs><path id="51kea" d="M776.51 334.5a34.88 34.88 0 0 1 26.64-12.5c17.6 0 32.21 13.3 35.03 30.77h-9.05c-2.7-12.33-13.3-21.54-25.98-21.54a26.35 26.35 0 0 0-22.15 12.3h13.27v9.24h-26.64v-27.7h8.88z"/><path id="51kec" d="M774.88 383.16c0-5.11 4-9.27 8.91-9.27s8.91 4.16 8.91 9.27c0 5.1-4 9.26-8.91 9.26s-8.91-4.16-8.91-9.26zm25.6-6.35c-2.49-7.08-9-12.15-16.69-12.15-9.82 0-17.79 8.28-17.79 18.5 0 10.2 7.97 18.49 17.79 18.49 8.88 0 16.21-6.77 17.55-15.6h27.96v8.19h8.88V376.8z"/><linearGradient id="51keb" x1="802.9" x2="802.9" y1="322" y2="391.14" gradientUnits="userSpaceOnUse"><stop offset="0" stop-color="#fae045"/><stop offset="1" stop-color="#f0650a"/></linearGradient><linearGradient id="51ked" x1="802.09" x2="802.09" y1="364.66" y2="447.77" gradientUnits="userSpaceOnUse"><stop offset="0" stop-color="#fae045"/><stop offset="1" stop-color="#f0650a"/></linearGradient></defs><g><g transform="translate(-766 -322)"><use fill="url(#51keb)" xlink:href="#51kea"/></g><g transform="translate(-766 -322)"><use fill="url(#51ked)" xlink:href="#51kec"/></g></g></svg>