<svg xmlns="http://www.w3.org/2000/svg" xmlns:xlink="http://www.w3.org/1999/xlink" width="44" height="44" viewBox="0 0 44 44"><defs><path id="5yzca" d="M648 252a21.9 21.9 0 0 1-4.99 13.93A21.92 21.92 0 0 1 626 274c-6.6 0-12.8-2.93-17.01-8.07A21.9 21.9 0 0 1 604 252a1.96 1.96 0 0 1 3.91 0c0 1.96.34 3.86 1.03 5.72 2.98-2.6 6.4-4.45 10.17-5.48a9.13 9.13 0 0 1-2.3-6.06 9.28 9.28 0 1 1 16.13 6.26c2.5.73 4.84 1.86 7.04 3.37a1.97 1.97 0 0 1-2.25 3.23 21.37 21.37 0 0 0-10.41-3.67c-.44.05-.83.1-1.27.1-.54 0-1.03-.05-1.52-.15a21.14 21.14 0 0 0-13.93 6.16 18.05 18.05 0 0 0 15.4 8.6A18.05 18.05 0 0 0 644.09 252c0-9.97-8.12-18.09-18.09-18.09a17.9 17.9 0 0 0-17.26 12.76 1.97 1.97 0 0 1-3.76-1.12A21.87 21.87 0 0 1 626 230c12.12 0 22 9.88 22 22zm-27.38-5.87a5.4 5.4 0 0 0 4.2 5.23h.79c.49 0 .98 0 1.47.05a5.44 5.44 0 0 0 4.3-5.28c0-2.98-2.4-5.37-5.38-5.37a5.36 5.36 0 0 0-5.38 5.37z"/></defs><g><g transform="translate(-604 -230)"><use fill="#ffc600" xlink:href="#5yzca"/></g></g></svg>