<svg xmlns="http://www.w3.org/2000/svg" xmlns:xlink="http://www.w3.org/1999/xlink" width="32" height="32" viewBox="0 0 32 32"><defs><path id="3812a" d="M1026.63 257.7l-4.63 4.63-4.63-4.63-2.67 2.67 4.63 4.63-4.63 4.63 2.67 2.67 4.63-4.63 4.63 4.63 2.67-2.67-4.63-4.63 4.63-4.63z"/><path id="3812c" d="M1037.84 265a15.85 15.85 0 0 1-31.67 0c0-8.73 7.1-15.83 15.83-15.83 8.74 0 15.84 7.1 15.84 15.83zm-3.77 0a12.06 12.06 0 1 0-24.13 0 12.06 12.06 0 0 0 24.13 0z"/><linearGradient id="3812b" x1="1022" x2="1022" y1="257.7" y2="290.5" gradientUnits="userSpaceOnUse"><stop offset="0" stop-color="#fae045"/><stop offset="1" stop-color="#f0650a"/></linearGradient><linearGradient id="3812d" x1="1022" x2="1022" y1="249.17" y2="320.33" gradientUnits="userSpaceOnUse"><stop offset="0" stop-color="#fae045"/><stop offset="1" stop-color="#f0650a"/></linearGradient></defs><g><g transform="translate(-1006 -249)"><use fill="url(#3812b)" xlink:href="#3812a"/></g><g transform="translate(-1006 -249)"><use fill="url(#3812d)" xlink:href="#3812c"/></g></g></svg>