<svg xmlns="http://www.w3.org/2000/svg" xmlns:xlink="http://www.w3.org/1999/xlink" width="25" height="25" viewBox="0 0 25 25"><defs><path id="kr4da" d="M26 262.5a12.5 12.5 0 1 1 25 0 12.5 12.5 0 0 1-25 0z"/><path id="kr4db" d="M44.11 260.96c-.17 1.2-.84 1.77-1.72 1.98 1.21.63 1.83 1.6 1.24 3.27-.73 2.09-2.46 2.26-4.76 1.83l-.56 2.24-1.35-.34.55-2.21-1.08-.28-.55 2.22-1.35-.34.56-2.24-.96-.25-1.76-.44.67-1.54s1 .26.98.24c.38.1.55-.15.62-.32l.88-3.54.15.04-.14-.05.63-2.53c.01-.28-.09-.64-.63-.78.02-.02-.98-.24-.98-.24l.36-1.45 1.86.47.86.2.55-2.21 1.35.34-.54 2.17 1.08.26.54-2.16 1.35.33-.55 2.22c1.7.59 2.95 1.47 2.7 3.1zm-6.5 1.9l-.74 2.97c.92.22 3.74 1.13 4.16-.55.43-1.75-2.5-2.2-3.42-2.43zm1.02-4.06l-.68 2.7c.77.18 3.12.96 3.5-.57.4-1.59-2.06-1.94-2.82-2.13z"/></defs><g><g transform="translate(-26 -250)"><g><use fill="#f7931a" xlink:href="#kr4da"/></g><g><use fill="#fff" xlink:href="#kr4db"/></g></g></g></svg>