<svg xmlns="http://www.w3.org/2000/svg" xmlns:xlink="http://www.w3.org/1999/xlink" width="25" height="25" viewBox="0 0 25 25"><defs><path id="ld33a" d="M367 30.5a12.5 12.5 0 1 1 25 0 12.5 12.5 0 0 1-25 0z"/><path id="ld33b" d="M379.89 21.13v6.93l5.86 2.62z"/><path id="ld33c" d="M379.89 21.13l-5.86 9.55 5.86-2.62z"/><path id="ld33d" d="M379.89 35.16v4.7l5.86-8.1z"/><path id="ld33e" d="M379.89 39.87v-4.71l-5.86-3.4z"/><path id="ld33f" d="M379.89 34.08l5.86-3.4-5.86-2.62z"/><path id="ld33g" d="M374.03 30.68l5.86 3.4v-6.02z"/></defs><g><g transform="translate(-367 -18)"><use fill="#627eea" xlink:href="#ld33a"/></g><g transform="translate(-367 -18)"><use fill="#fff" fill-opacity=".6" xlink:href="#ld33b"/></g><g transform="translate(-367 -18)"><use fill="#fff" xlink:href="#ld33c"/></g><g transform="translate(-367 -18)"><use fill="#fff" fill-opacity=".6" xlink:href="#ld33d"/></g><g transform="translate(-367 -18)"><use fill="#fff" xlink:href="#ld33e"/></g><g transform="translate(-367 -18)"><use fill="#fff" fill-opacity=".2" xlink:href="#ld33f"/></g><g transform="translate(-367 -18)"><use fill="#fff" fill-opacity=".6" xlink:href="#ld33g"/></g></g></svg>