<svg xmlns="http://www.w3.org/2000/svg" xmlns:xlink="http://www.w3.org/1999/xlink" width="25" height="25" viewBox="0 0 25 25"><defs><path id="zogaa" d="M480 30.5a12.5 12.5 0 1 1 25 0 12.5 12.5 0 0 1-25 0z"/><path id="zogab" d="M491.79 33.5h4.92v2.62h-3.03l.13 2.2h-2.55v-2.17h-3.03c0-.85-.1-1.7.05-2.5.08-.44.53-.81.81-1.18l2.9-3.58 1.19-1.4h-4.72v-2.61h2.8v-2.19h2.45v2.14h3.05c0 .88.1 1.73-.05 2.53-.08.43-.53.8-.83 1.18a361.2 361.2 0 0 1-2.9 3.58c-.38.48-.76.9-1.19 1.39z"/></defs><g><g transform="translate(-480 -18)"><use fill="#ecb244" xlink:href="#zogaa"/></g><g transform="translate(-480 -18)"><use fill="#fff" xlink:href="#zogab"/></g></g></svg>