<?xml version="1.0" encoding="UTF-8"?>
<svg width="126px" height="126px" viewBox="0 0 126 126" version="1.1" xmlns="http://www.w3.org/2000/svg" xmlns:xlink="http://www.w3.org/1999/xlink">
    <!-- Generator: Sketch 50 (54983) - http://www.bohemiancoding.com/sketch -->
    <title>Combined Shape</title>
    <desc>Created with Sketch.</desc>
    <defs></defs>
    <g id="MAIN" stroke="none" stroke-width="1" fill="none" fill-rule="evenodd">
        <g id="Info_dashboard_my_orders_3" transform="translate(-1009.000000, -488.000000)" fill="#D9D9D9" fill-rule="nonzero">
            <g id="noun_534877_cc" transform="translate(1009.000000, 488.000000)">
                <g id="Group">
                    <path d="M63,126 C60.102,126 57.75,123.65325 57.75,120.75 C57.75,106.27575 69.52575,94.5 84,94.5 C86.90325,94.5 89.25,96.84675 89.25,99.75 C89.25,102.65325 86.90325,105 84,105 C75.3165,105 68.25,112.0665 68.25,120.75 C68.25,123.65325 65.898,126 63,126 Z M42,105 C39.102,105 36.75,102.65325 36.75,99.75 C36.75,96.84675 39.102,94.5 42,94.5 C50.6835,94.5 57.75,87.4335 57.75,78.75 C57.75,75.84675 60.102,73.5 63,73.5 C65.898,73.5 68.25,75.84675 68.25,78.75 C68.25,93.22425 56.47425,105 42,105 Z M63,126 C60.102,126 57.75,123.65325 57.75,120.75 C57.75,112.0665 50.6835,105 42,105 C39.102,105 36.75,102.65325 36.75,99.75 C36.75,96.84675 39.102,94.5 42,94.5 C56.47425,94.5 68.25,106.27575 68.25,120.75 C68.25,123.65325 65.898,126 63,126 Z M84,105 C69.52575,105 57.75,93.22425 57.75,78.75 C57.75,75.84675 60.102,73.5 63,73.5 C65.898,73.5 68.25,75.84675 68.25,78.75 C68.25,87.4335 75.3165,94.5 84,94.5 C86.90325,94.5 89.25,96.84675 89.25,99.75 C89.25,102.65325 86.90325,105 84,105 Z M99.75,52.5 C96.84675,52.5 94.5,50.148 94.5,47.25 C94.5,32.77575 106.27575,21 120.75,21 C123.65325,21 126,23.352 126,26.25 C126,29.148 123.65325,31.5 120.75,31.5 C112.0665,31.5 105,38.5665 105,47.25 C105,50.148 102.65325,52.5 99.75,52.5 Z M78.75,31.5 C75.84675,31.5 73.5,29.148 73.5,26.25 C73.5,23.352 75.84675,21 78.75,21 C87.4335,21 94.5,13.9335 94.5,5.25 C94.5,2.352 96.84675,0 99.75,0 C102.65325,0 105,2.352 105,5.25 C105,19.72425 93.22425,31.5 78.75,31.5 Z M99.75,52.5 C96.84675,52.5 94.5,50.148 94.5,47.25 C94.5,38.5665 87.4335,31.5 78.75,31.5 C75.84675,31.5 73.5,29.148 73.5,26.25 C73.5,23.352 75.84675,21 78.75,21 C93.22425,21 105,32.77575 105,47.25 C105,50.148 102.65325,52.5 99.75,52.5 Z M120.75,31.5 C106.27575,31.5 94.5,19.72425 94.5,5.25 C94.5,2.352 96.84675,0 99.75,0 C102.65325,0 105,2.352 105,5.25 C105,13.9335 112.0665,21 120.75,21 C123.65325,21 126,23.352 126,26.25 C126,29.148 123.65325,31.5 120.75,31.5 Z M31.5,21 C28.602,21 26.25,18.648 26.25,15.75 L26.25,5.25 C26.25,2.352 28.602,0 31.5,0 C34.398,0 36.75,2.352 36.75,5.25 L36.75,15.75 C36.75,18.648 34.398,21 31.5,21 Z M31.5,63 C28.602,63 26.25,60.648 26.25,57.75 L26.25,47.25 C26.25,44.352 28.602,42 31.5,42 C34.398,42 36.75,44.352 36.75,47.25 L36.75,57.75 C36.75,60.648 34.398,63 31.5,63 Z M31.5,36.75 C30.135,36.75 28.77,36.1725 27.7725,35.2275 C26.8275,34.23 26.25,32.865 26.25,31.5 C26.25,30.135 26.8275,28.77 27.7725,27.7725 C29.715,25.83 33.2325,25.83 35.2275,27.7725 C36.1725,28.77 36.75,30.135 36.75,31.5 C36.75,32.865 36.1725,34.23 35.2275,35.2275 C34.23,36.1725 32.865,36.75 31.5,36.75 Z M15.75,36.75 L5.25,36.75 C2.352,36.75 0,34.398 0,31.5 C0,28.602 2.352,26.25 5.25,26.25 L15.75,26.25 C18.648,26.25 21,28.602 21,31.5 C21,34.398 18.648,36.75 15.75,36.75 Z M57.75,36.75 L47.25,36.75 C44.352,36.75 42,34.398 42,31.5 C42,28.602 44.352,26.25 47.25,26.25 L57.75,26.25 C60.648,26.25 63,28.602 63,31.5 C63,34.398 60.648,36.75 57.75,36.75 Z M26.25,126 C23.3505051,126 21,123.649495 21,120.75 C21,117.850505 23.3505051,115.5 26.25,115.5 C29.1494949,115.5 31.5,117.850505 31.5,120.75 C31.5,123.649495 29.1494949,126 26.25,126 Z M10.5,89.25 C7.60050506,89.25 5.25,86.8994949 5.25,84 C5.25,81.1005051 7.60050506,78.75 10.5,78.75 C13.3994949,78.75 15.75,81.1005051 15.75,84 C15.75,86.8994949 13.3994949,89.25 10.5,89.25 Z M99.75,126 C96.8505051,126 94.5,123.649495 94.5,120.75 C94.5,117.850505 96.8505051,115.5 99.75,115.5 C102.649495,115.5 105,117.850505 105,120.75 C105,123.649495 102.649495,126 99.75,126 Z M63,63 C60.1005051,63 57.75,60.6494949 57.75,57.75 C57.75,54.8505051 60.1005051,52.5 63,52.5 C65.8994949,52.5 68.25,54.8505051 68.25,57.75 C68.25,60.6494949 65.8994949,63 63,63 Z M105,84 C102.100505,84 99.75,81.6494949 99.75,78.75 C99.75,75.8505051 102.100505,73.5 105,73.5 C107.899495,73.5 110.25,75.8505051 110.25,78.75 C110.25,81.6494949 107.899495,84 105,84 Z" id="Combined-Shape"></path>
                </g>
            </g>
        </g>
    </g>
</svg>