<svg xmlns="http://www.w3.org/2000/svg" xmlns:xlink="http://www.w3.org/1999/xlink" width="19" height="15" viewBox="0 0 19 15"><defs><path id="x3vga" d="M502.24 625.52a.79.79 0 0 1-.02-1.12c2.05-2.12 5.52-3.39 9.28-3.39.96 0 1.92.09 2.86.26a.8.8 0 1 1-.28 1.55 14.7 14.7 0 0 0-2.58-.23c-3.34 0-6.38 1.09-8.14 2.9a.8.8 0 0 1-1.12.03zm17.97.22a.8.8 0 0 1-.57-.25 7.4 7.4 0 0 0-1.08-.89.79.79 0 0 1-.19-1.1.8.8 0 0 1 1.1-.19c.54.38.97.74 1.3 1.09a.79.79 0 0 1-.56 1.34zM504.37 636a.8.8 0 0 1-.56-1.35l13.46-13.42a.8.8 0 0 1 1.12 1.12l-13.46 13.42a.8.8 0 0 1-.56.23zm11.84-3.4a6.57 6.57 0 0 0 3.13-2.91 6.53 6.53 0 0 0-2.92-2.8.79.79 0 1 1 .73-1.4 7.9 7.9 0 0 1 3.8 3.9c.07.19.07.4 0 .59-1.26 3.13-5.05 5.23-9.45 5.23-.95 0-1.91-.1-2.85-.31a.79.79 0 0 1-.2-1.47c-.2.37-.06.84.3 1.05a5.54 5.54 0 0 0 7.46-1.88zm-7.75.8a.8.8 0 0 1 1.08-.29 3.97 3.97 0 0 0 5.92-3.43c0-.68-.18-1.35-.52-1.95a.79.79 0 0 1 .3-1.07.8.8 0 0 1 1.07.29 5.5 5.5 0 0 1-.1 5.65 10.86 10.86 0 0 1-4.71 1.03c-.84 0-1.68-.1-2.5-.27a.8.8 0 0 0-.55.07l.01-.02zm-1.7-3.13c.4 0 .75-.3.79-.7v.04c0 .44-.36.83-.8.83-.44 0-.8-.32-.8-.76l.02-.17v-.04c0 .43.33.78.76.8zm-.8-.82c.05-.98.35-1.89.85-2.67 1.3-.64 2.86-1.01 4.5-1.04a.79.79 0 0 0 .02 0 3.97 3.97 0 0 0-3.78 3.83v-.06c.02-.43-.32-.75-.75-.78-.42-.03-.78.33-.83.74v-.02zm.85-2.67a6.6 6.6 0 0 0-3.15 2.9c.28.58.69 1.13 1.23 1.63a.79.79 0 0 1-.54 1.37.79.79 0 0 1-.54-.22 6.92 6.92 0 0 1-1.75-2.48.8.8 0 0 1 0-.59c1.22-3.06 4.93-5.16 9.23-5.23.46 0 .8.35.8.78a.79.79 0 0 0 0-.02.8.8 0 0 0-.83-.75 5.56 5.56 0 0 0-4.45 2.6zm4.69 5.27a.79.79 0 1 1 0-1.58.8.8 0 0 0 .8-.79.79.79 0 0 1 1.57 0c0 1.31-1.06 2.37-2.37 2.37z"/></defs><g><g transform="translate(-502 -621)"><use fill="#f34856" xlink:href="#x3vga"/></g></g></svg>