<svg xmlns="http://www.w3.org/2000/svg" xmlns:xlink="http://www.w3.org/1999/xlink" width="24" height="23" viewBox="0 0 24 23"><defs><path id="3gwya" d="M297 1249l6-5h8a1 1 0 0 0 1-1v-14a1 1 0 0 0-1-1h-20a1 1 0 0 0-1 1v14a1 1 0 0 0 1 1h6z"/><path id="3gwyb" d="M301.1 1231.22c.73 0 1.35.26 1.87.78s.77 1.14.77 1.87c0 .66-.21 1.24-.64 1.74-.43.5-.96.79-1.6.89v1.54c0 .1-.04.2-.12.28a.39.39 0 0 1-.29.12.39.39 0 0 1-.28-.12.4.4 0 0 1-.12-.28v-1.92c0-.11.04-.2.12-.29a.38.38 0 0 1 .28-.12c.5 0 .94-.18 1.3-.54.36-.36.54-.8.54-1.3s-.18-.94-.54-1.3c-.36-.36-.8-.54-1.3-.54s-.94.18-1.3.54c-.36.36-.54.8-.54 1.3 0 .12-.04.21-.11.29a.4.4 0 0 1-.58 0 .39.39 0 0 1-.12-.29c0-.73.26-1.35.78-1.87a2.55 2.55 0 0 1 1.87-.78zm-.3 9.08c.06-.07.16-.1.28-.1a.4.4 0 0 1 .29.1.4.4 0 0 1 .11.3c0 .1-.04.2-.11.29a.4.4 0 0 1-.3.11.39.39 0 0 1-.28-.11.4.4 0 0 1 0-.59z"/></defs><g><g transform="translate(-289 -1227)"><g><g><g><use fill="#fff" fill-opacity="0" stroke="#fff" stroke-linecap="round" stroke-linejoin="round" stroke-miterlimit="50" stroke-width="2" xlink:href="#3gwya"/></g></g></g><g><use fill="#fff" xlink:href="#3gwyb"/><use fill="#fff" fill-opacity="0" stroke="#fff" stroke-miterlimit="50" stroke-width=".5" xlink:href="#3gwyb"/></g></g></g></svg>