<svg xmlns="http://www.w3.org/2000/svg" xmlns:xlink="http://www.w3.org/1999/xlink" width="18" height="23" viewBox="0 0 18 23"><defs><path id="kiwma" d="M467.97 637.29s1.75.31 3.29-1.61c1.44-1.8 1.14-3.68 1.14-3.68s-2.02.01-3.47 2c-1.29 1.77-.96 3.29-.96 3.29zm-3.66.3c-2.57 0-5.31 2.4-5.31 6.98 0 4.65 3.24 10.43 5.8 10.43.9 0 2.27-.94 3.66-.94 1.36 0 2.36.9 3.65.9 2.81 0 4.89-6.09 4.89-6.09s-2.97-1.2-2.97-4.68c0-3.09 2.38-4.36 2.38-4.36s-1.22-2.3-4.32-2.3c-1.8 0-3.19 1.07-3.94 1.07-.86 0-2.16-1-3.83-1z"/></defs><g><g transform="translate(-459 -632)"><g><use fill="#fff" xlink:href="#kiwma"/></g></g></g></svg>