<?xml version="1.0" encoding="UTF-8"?>
<svg width="18px" height="23px" viewBox="0 0 18 23" version="1.1" xmlns="http://www.w3.org/2000/svg" xmlns:xlink="http://www.w3.org/1999/xlink">
    <!-- Generator: Sketch 50 (54983) - http://www.bohemiancoding.com/sketch -->
    <title>apple</title>
    <desc>Created with Sketch.</desc>
    <defs></defs>
    <g id="MAIN" stroke="none" stroke-width="1" fill="none" fill-rule="evenodd">
        <g id="Info_dashboard_security_settings_3" transform="translate(-628.000000, -896.000000)" fill="#000000" fill-rule="nonzero">
            <g id="apple" transform="translate(628.000000, 896.000000)">
                <path d="M9.93154729,2.00151628 C11.3822692,0.00971041253 13.3991194,0 13.3991194,0 C13.3991194,0 13.6991224,1.87263605 12.2579037,3.67658133 C10.7190416,5.60279468 8.96991265,5.287603 8.96991265,5.287603 C8.96991265,5.287603 8.64147263,3.77270308 9.93154729,2.00151628 Z M9.15442666,6.59937772 C9.90075264,6.59937772 11.2858954,5.53070337 13.0888515,5.53070337 C16.1923285,5.53070337 17.4132331,7.83108876 17.4132331,7.83108876 C17.4132331,7.83108876 15.0253599,9.10285053 15.0253599,12.1887214 C15.0253599,15.6698476 18,16.8695559 18,16.8695559 C18,16.8695559 15.9206174,22.9662214 13.1119566,22.9662214 C11.8219544,22.9662214 10.8190426,22.0606593 9.45983416,22.0606593 C8.07469144,22.0606593 6.70014005,23 5.80488257,23 C3.24014871,23.0000756 0,17.2167503 0,12.5679187 C0,7.99412546 2.74257388,5.59478453 5.31499733,5.59478453 C6.9873029,5.59478453 8.28503088,6.59937772 9.15442666,6.59937772 Z" id="Shape"></path>
            </g>
        </g>
    </g>
</svg>