<?xml version="1.0" encoding="UTF-8"?>
<svg width="90px" height="33px" viewBox="0 0 90 33" version="1.1" xmlns="http://www.w3.org/2000/svg" xmlns:xlink="http://www.w3.org/1999/xlink">
    <!-- Generator: Sketch 49.3 (51167) - http://www.bohemiancoding.com/sketch -->
    <title>Group 19</title>
    <desc>Created with Sketch.</desc>
    <defs></defs>
    <g id="Page-1" stroke="none" stroke-width="1" fill="none" fill-rule="evenodd">
        <g id="Notifications_sidebar_open" transform="translate(-21.000000, -17.000000)">
            <g id="Group-19" transform="translate(21.000000, 17.000000)">
                <g id="Group">
                    <path d="M27.7449593,22.5657143 C23.6218714,22.5657143 20.2794482,19.2730884 20.2794482,15.2114286 C20.2794482,11.1497687 23.6218714,7.85714286 27.7449593,7.85714286 C31.8680473,7.85714286 35.2104705,11.1497687 35.2104705,15.2114286 C35.2104705,19.2730884 31.8680473,22.5657143 27.7449593,22.5657143 Z M27.7542912,18.2634571 C29.4602189,18.2634571 30.8431464,16.9011332 30.8431464,15.2206214 C30.8431464,13.5401097 29.4602189,12.1777857 27.7542912,12.1777857 C26.0483636,12.1777857 24.665436,13.5401097 24.665436,15.2206214 C24.665436,16.9011332 26.0483636,18.2634571 27.7542912,18.2634571 Z" id="Combined-Shape-Copy-18" fill="#FFFFFF"></path>
                    <polygon id="Path-Copy-5" fill="#FFFFFF" points="37.7891758 7.85714286 43.1057658 7.85714286 43.1057658 22.2828571 37.7891758 22.2828571"></polygon>
                    <path d="M51.7616326,14.659285 C51.7590826,14.6709755 51.7577653,14.6805121 51.7577653,14.6876876 C51.7577653,16.4106726 51.7577653,18.9319195 51.7577653,22.2514286 L46.448532,22.2514286 L46.448532,8.18779762 L51.1509958,8.18779762 L51.7577653,10.043 C52.2836348,9.36475058 52.900511,8.83612293 53.6084123,8.45710119 C54.3163136,8.07807945 55.0545425,7.88857143 55.823121,7.88857143 C57.5018584,7.88857143 58.8316817,8.4471214 59.8126306,9.5642381 C60.7935796,10.6813548 61.2840467,12.1774708 61.2840467,14.052631 L61.2840467,22.2514286 L55.9748134,22.2514286 L55.9748134,14.8904643 C55.9748134,14.8633981 55.9729029,14.8351843 55.9691923,14.8059479 C55.9717583,14.763938 55.9730598,14.7215915 55.9730598,14.678945 C55.9730598,13.5311435 55.030279,12.6006665 53.8673,12.6006665 C52.7109683,12.6006665 51.7723248,13.5205372 51.7616326,14.659285 Z" id="Combined-Shape-Copy-19" fill="#FFFFFF"></path>
                    <ellipse id="Oval-2-Copy-7" fill="#FFFFFF" cx="40.3360453" cy="3.11142857" rx="3.15175097" ry="3.11142857"></ellipse>
                    <ellipse id="Oval-2-Copy-8" fill="#FE4751" cx="65.1998585" cy="21.1514286" rx="1.14609126" ry="1.13142857"></ellipse>
                    <path d="M79.4290591,21.1711034 C79.5704744,21.071281 79.7169381,20.9764511 79.8684545,20.8866109 C80.0199709,20.7967707 80.1361317,20.7518513 80.2169405,20.7518513 C80.3381536,20.7318869 80.4644154,20.7768063 80.5957296,20.8866109 C80.7270438,20.9964156 80.7926999,21.1411559 80.7926999,21.3208362 C80.8129021,21.4805521 80.7876498,21.6302835 80.7169421,21.7700348 C80.6462344,21.9097862 80.4795689,22.0794818 80.2169405,22.2791266 C79.6714814,22.7183452 79.055324,23.1575572 78.3684497,23.5967758 C77.4189469,24.1957103 76.6613762,24.5850119 76.095715,24.7646922 C75.5906604,27.0206787 74.9846039,28.8374194 74.2775273,30.2149686 C73.3280246,32.0716655 72.2775266,33 71.126002,33 C70.5199364,33 70.0148893,32.6606089 69.6108456,31.9818165 C69.2068018,31.3030241 69.0350858,30.6242419 69.0956924,29.9454495 C69.0956924,28.2883974 69.6007395,26.8909046 70.6108488,25.7529292 C71.2977231,24.9743143 72.1462022,24.3753889 73.1563116,23.9561347 C73.0755028,23.8563123 73.0047962,23.7864377 72.9441897,23.7465087 C72.7017634,23.5668284 72.3229781,23.4370612 71.8078224,23.3572033 C71.2926666,23.2773453 70.79267,22.9978468 70.3078175,22.5186992 C69.822965,22.0395516 69.5805424,21.5105008 69.5805424,20.9315308 C69.7421599,19.4341946 70.4088221,18.0017645 71.5805489,16.6341974 C72.7522757,15.2666304 73.9340859,14.5828571 75.1260149,14.5828571 C75.8734958,14.5828571 76.4391486,14.7675258 76.8229901,15.1368688 C77.2068317,15.5062117 77.3987495,16.1201103 77.3987495,16.978583 C77.3987495,17.7172689 76.8633996,18.5158362 75.7926837,19.3743089 C74.9239897,20.0730658 74.0250059,20.6120988 73.0957053,20.9914239 C73.277525,21.0912463 73.620957,21.1860762 74.1260117,21.2759164 C74.6310663,21.3657565 75.0048012,21.520479 75.2472274,21.7400883 C75.6512712,22.1194134 75.8886433,22.3739568 75.9593509,22.5037259 C76.0300586,22.633495 76.04521,22.7981995 76.0048056,22.9978444 C77.0957237,22.4388389 77.732083,22.1094298 77.9139027,22.0096074 C78.6209793,21.6302823 79.1260263,21.3507837 79.4290591,21.1711034 Z M73.6108585,25.6031963 C73.0653995,25.9026635 72.6512609,26.1921442 72.3684302,26.4716469 C71.9239821,26.9108655 71.7017614,27.3900059 71.7017614,27.9090825 C71.7017614,28.2684431 71.7522661,28.5679059 71.8532771,28.8074797 C71.954288,29.0470535 72.0552974,29.1668386 72.1563083,29.1668386 C72.3785324,29.1668386 72.6411569,28.7076624 72.9441897,27.7892962 C73.1664137,27.0506103 73.3886344,26.3219176 73.6108585,25.6031963 Z M74.7320743,17.4277816 C74.7320743,17.2081723 74.6108629,17.0983693 74.3684367,17.0983693 C74.2270214,17.0983693 74.0502549,17.2331276 73.838132,17.5026481 C73.626009,17.7721686 73.4189397,18.0766224 73.2169178,18.4160186 C73.6613659,18.3161962 74.0249998,18.186429 74.3078305,18.0267131 C74.5906611,17.8669973 74.7320743,17.6673554 74.7320743,17.4277816 Z" id="g" fill="#FE4751"></path>
                    <path d="M90,5.26456633 C90,5.8241723 89.8080917,6.2588597 89.4242694,6.56864158 C89.0404471,6.87842346 88.5758271,7.03331207 88.0303954,7.03331207 C87.6061707,7.03331207 87.2678061,6.88841627 87.0152914,6.59862032 C86.7627768,6.30882437 86.6365213,5.95407948 86.6365213,5.534375 C86.596119,5.03472681 86.7577259,4.595043 87.1213471,4.21531037 C87.4849682,3.83557775 87.9091865,3.64571429 88.3940147,3.64571429 C88.8384405,3.64571429 89.2172069,3.82058853 89.530325,4.17034226 C89.8434432,4.52009599 90,4.8848337 90,5.26456633 Z M87.7273793,10.1211224 C87.7273793,10.6407566 87.3486129,11.640038 86.5910689,13.1189966 C85.8335249,14.5979552 85.0911429,16.0569061 84.3639006,17.4958929 C83.5356525,19.2546545 83.0811329,20.5737059 83.0003282,21.4530867 C83.0003282,22.2924957 82.8690225,22.8920645 82.6064072,23.2518112 C82.343792,23.6115579 81.8589711,23.7914286 81.15193,23.7914286 C80.6671018,23.7914286 80.3438879,23.5965687 80.1822785,23.2068431 C80.0206691,22.8171175 79.9398656,22.2325379 79.9398656,21.4530867 C79.9398656,21.0333823 80.50549,19.7942733 81.6367557,17.7357228 C82.6064121,15.9769612 83.7225102,14.133287 84.9850836,12.204645 C86.247657,10.276003 87.0102399,9.31169643 87.2728551,9.31169643 C87.5758727,9.31169643 87.7273793,9.5815024 87.7273793,10.1211224 Z" id="I" fill="#FE4751"></path>
                    <path d="M18.4885503,4.66194618 L15.206674,7.94382241 C14.0963524,6.76944462 12.5150848,6.03532062 10.7602855,6.03532062 C7.4004498,6.03532062 4.67676479,8.7265493 4.67676479,12.0463481 C4.67676479,15.3661469 7.4004498,18.0573756 10.7602855,18.0573756 C12.6530934,18.0573756 14.344001,17.2032385 15.4597589,15.8637658 L18.7409032,19.1449101 C16.7730958,21.30315 13.9223981,22.66 10.7509693,22.66 C4.8133729,22.66 0,17.9039849 0,12.0371429 C0,6.17030086 4.8133729,1.41428571 10.7509693,1.41428571 C13.7893128,1.41428571 16.5332785,2.6596478 18.4885503,4.66194618 Z" id="Combined-Shape" fill="#FFFFFF"></path>
                </g>
            </g>
        </g>
    </g>
</svg>