<svg xmlns="http://www.w3.org/2000/svg" xmlns:xlink="http://www.w3.org/1999/xlink" width="124" height="127" viewBox="0 0 124 127"><defs><path id="oiwua" d="M849.74 470.43c0 10.8-3.19 21.33-9.29 30.33l-2.22 3.18 24.27 24.38a8.95 8.95 0 0 1 2.5 6.1c0 2.2-.83 4.43-2.5 6.09a8.72 8.72 0 0 1-12.2 0l-24.97-24.93-2.08 1.24a53.94 53.94 0 0 1-27.88 7.76c-29.96 0-54.37-24.37-54.37-54.29 0-29.91 24.41-54.29 54.37-54.29a54.45 54.45 0 0 1 54.37 54.43zm-12.36-.14a41.97 41.97 0 0 0-42-41.95 41.97 41.97 0 0 0-42.02 41.95 41.97 41.97 0 0 0 42.01 41.95c23.06 0 42.01-18.77 42.01-41.95z"/><path id="oiwub" d="M781.71 461.45l4.24-4.24 23.34 23.34-4.24 4.24z"/><path id="oiwuc" d="M785.95 484.79l-4.24-4.24 23.34-23.34 4.24 4.24z"/></defs><g><g opacity=".5" transform="translate(-741 -416)"><g opacity=".5"><use fill="#fff" xlink:href="#oiwua"/></g><g opacity=".5"><g opacity=".5"><use fill="#fff" xlink:href="#oiwub"/></g><g opacity=".5"><use fill="#fff" xlink:href="#oiwuc"/></g></g></g></g></svg>