<svg xmlns="http://www.w3.org/2000/svg" xmlns:xlink="http://www.w3.org/1999/xlink" width="111" height="111" viewBox="0 0 111 111"><defs><path id="l3aea" d="M782.49 515.8l-11.1 11.1 22.85 22.84 39.36-39.37-11.1-11.1-28.26 28.27z"/><path id="l3aec" d="M802.5 467a55.58 55.58 0 0 0-55.5 55.5 55.58 55.58 0 0 0 55.5 55.5c24 0 45.17-15.36 52.79-38.2a5.07 5.07 0 0 0-3.36-6.46 5.07 5.07 0 0 0-6.45 3.36 45.22 45.22 0 0 1-88.15-14.2 45.22 45.22 0 0 1 45.17-45.17 45.22 45.22 0 0 1 45.17 45.17 5.18 5.18 0 0 0 5.17 5.16 5.18 5.18 0 0 0 5.16-5.16 55.58 55.58 0 0 0-55.5-55.5z"/><linearGradient id="l3aeb" x1="802.5" x2="802.5" y1="502.92" y2="584.27" gradientUnits="userSpaceOnUse"><stop offset="0" stop-color="#10df4d"/><stop offset="1" stop-color="#02550f"/></linearGradient><linearGradient id="l3aed" x1="802.5" x2="802.5" y1="475.02" y2="653.93" gradientUnits="userSpaceOnUse"><stop offset="0" stop-color="#10df4d"/><stop offset="1" stop-color="#02550f"/></linearGradient></defs><g><g transform="translate(-747 -467)"><use fill="url(#l3aeb)" xlink:href="#l3aea"/></g><g transform="translate(-747 -467)"><use fill="url(#l3aed)" xlink:href="#l3aec"/></g></g></svg>