<svg xmlns="http://www.w3.org/2000/svg" xmlns:xlink="http://www.w3.org/1999/xlink" width="16" height="14" viewBox="0 0 16 14"><defs><path id="90d5a" d="M334 794.51h-1.21l.02-.51c0-3.87-3.06-7-6.85-7-1.79 0-3.4.71-4.63 1.86l.99 1.42a5.11 5.11 0 0 1 3.64-1.57 5.24 5.24 0 0 1 5.16 5.8h-1.11l2 2.88 1.99-2.88zm-4.3 3.14a5.09 5.09 0 0 1-3.73 1.64 5.24 5.24 0 0 1-5.14-5.9h1.16l-2-2.87-1.99 2.88h1.15c-.02.2-.04.4-.04.6 0 3.87 3.07 7 6.86 7 1.83 0 3.48-.74 4.71-1.94z"/></defs><g><g transform="translate(-318 -787)"><use fill="#e9bd24" xlink:href="#90d5a"/></g></g></svg>