<svg xmlns="http://www.w3.org/2000/svg" width="100" height="79" viewBox="0 0 100 79">
  <defs>
    <linearGradient id="noun_708077_cc-a" x1="50%" x2="50%" y1="0%" y2="224.688%">
      <stop offset="0%" stop-color="#FAE045"/>
      <stop offset="100%" stop-color="#F0650A"/>
    </linearGradient>
  </defs>
  <path fill="url(#noun_708077_cc-a)" d="M29.7959112,48.363718 L65.2173913,48.363718 L73.9130435,48.363718 C73.9130435,52.721278 73.9130435,57.078838 73.9130435,61.4363981 L65.2173913,61.4363981 L65.2173913,57.078838 L29.793861,57.078838 C27.9048932,63.3515535 22.0605487,67.969252 15.2173913,67.969252 C6.86465087,67.969252 0,61.0895363 0,52.717792 C0,44.3464834 6.86465087,37.4663319 15.2173913,37.4663319 C22.0630262,37.4663319 27.9091249,42.0876674 29.7959112,48.363718 Z M80.4347826,26.5724318 L80.4347826,18.4956943 C80.4202913,13.2548568 76.3112261,9.15047106 71.1701783,9.15047106 C66.042713,9.16485101 61.952313,13.2923319 61.9565217,18.5296833 L53.2608696,18.5296833 C53.2529043,8.61972025 61.2961522,0.427071642 71.161687,0.427071642 L71.1614826,0.444066126 L71.1701783,0.444066126 C81.0263913,0.444066126 89.1030435,8.56830104 89.1304348,18.4786998 L89.1304348,26.5724318 L100,26.5724318 L100,78.8631521 L43.4782609,78.8631521 L43.4782609,61.432912 L52.173913,61.432912 L52.173913,70.1480321 L91.3043478,70.1480321 L91.3043478,35.2875518 L52.173913,35.2875518 L52.173913,44.0026719 L43.4782609,44.0026719 L43.4782609,26.5724318 L80.4347826,26.5724318 Z M15.2173913,46.1814519 C11.5641304,46.1814519 8.69565217,49.05657 8.69565217,52.717792 C8.69565217,56.3794496 11.5641304,59.254132 15.2173913,59.254132 C18.8706522,59.254132 21.7391304,56.3794496 21.7391304,52.717792 C21.7391304,49.05657 18.8706522,46.1814519 15.2173913,46.1814519 Z"/>
</svg>
