<svg xmlns="http://www.w3.org/2000/svg" width="78" height="78" viewBox="0 0 78 78">
  <defs>
    <linearGradient id="noun_209132_cc-a" x1="50%" x2="50%" y1="0%" y2="224.688%">
      <stop offset="0%" stop-color="#FAE045"/>
      <stop offset="100%" stop-color="#F0650A"/>
    </linearGradient>
  </defs>
  <path fill="url(#noun_209132_cc-a)" d="M54.1487603,74.9380165 C58.822314,73.0041322 62.9318182,70.1838843 66.5578512,66.5578512 C70.1033058,63.0123967 72.9235537,58.822314 74.9380165,54.1487603 C76.9524793,49.3140496 78,44.2376033 78,39 C78,33.7623967 76.9524793,28.6053719 74.9380165,23.8512397 C73.0041322,19.177686 70.1838843,15.0681818 66.5578512,11.4421488 C63.0123967,7.89669421 58.822314,5.07644628 54.1487603,3.06198347 C49.3140496,1.04752066 44.2376033,0 39,0 C33.7623967,0 28.6053719,1.04752066 23.8512397,3.06198347 C19.177686,4.99586777 15.0681818,7.8161157 11.4421488,11.4421488 C7.89669421,14.9876033 5.07644628,19.177686 3.06198347,23.8512397 C1.04752066,28.6859504 0,33.7623967 0,39 C0,44.2376033 1.04752066,49.3946281 3.06198347,54.1487603 C4.99586777,58.822314 7.8161157,62.9318182 11.4421488,66.5578512 C14.9876033,70.1033058 19.177686,72.9235537 23.8512397,74.9380165 C28.6859504,76.9524793 33.7623967,78 39,78 C44.2376033,78 49.3946281,77.0330579 54.1487603,74.9380165 Z M28.6053719,23.7706612 L28.6053719,34.0847107 C28.6053719,35.696281 29.411157,37.1466942 30.7004132,37.9524793 L30.7004132,47.8636364 C30.7004132,48.0247934 30.6198347,48.1859504 30.4586777,48.2665289 C29.088843,48.911157 22.1590909,52.4566116 15.7933884,57.6942149 C15.1487603,58.2582645 14.5847107,58.9834711 14.3429752,59.7892562 C9.66942149,54.2293388 6.84917355,46.9772727 6.84917355,39.161157 C6.84917355,21.4338843 21.2727273,6.92975207 39.0805785,6.92975207 C56.8884298,6.92975207 71.3119835,21.3533058 71.3119835,39.161157 C71.3119835,46.9772727 68.4917355,54.2293388 63.8181818,59.7892562 C63.4958678,58.9834711 63.0123967,58.2582645 62.3677686,57.6942149 C56.0020661,52.4566116 49.1528926,48.9917355 47.7024793,48.2665289 C47.5413223,48.1859504 47.4607438,48.0247934 47.4607438,47.8636364 L47.4607438,37.9524793 C48.6694215,37.1466942 49.5557851,35.696281 49.5557851,34.0847107 L49.5557851,23.7706612 C49.5557851,18.6136364 45.3657025,14.5041322 40.2892562,14.5041322 L39.161157,14.5041322 L38.0330579,14.5041322 C32.7954545,14.5041322 28.6053719,18.6136364 28.6053719,23.7706612 Z"/>
</svg>
