<svg xmlns="http://www.w3.org/2000/svg" xmlns:xlink="http://www.w3.org/1999/xlink" width="150" height="150" viewBox="0 0 150 150"><defs><path id="ilk8a" d="M802 465c-41.34 0-75 33.66-75 75s33.66 75 75 75a75.15 75.15 0 0 0 71.34-51.63 6.85 6.85 0 0 0-4.54-8.72 6.85 6.85 0 0 0-8.72 4.54A61.11 61.11 0 0 1 740.95 540 61.11 61.11 0 0 1 802 478.95 61.11 61.11 0 0 1 863.05 540a7 7 0 0 0 6.97 6.98A7 7 0 0 0 877 540c0-41.34-33.66-75-75-75z"/><path id="ilk8c" d="M801.3 555.54a6.84 6.84 0 0 0 6.83-6.82v-39.2a6.84 6.84 0 0 0-6.82-6.82 6.84 6.84 0 0 0-6.82 6.82v39.2a6.84 6.84 0 0 0 6.82 6.82z"/><path id="ilk8e" d="M792.79 571.4a8.52 8.52 0 1 1 17.05 0 8.52 8.52 0 0 1-17.05 0z"/><linearGradient id="ilk8b" x1="802" x2="802" y1="465" y2="615" gradientUnits="userSpaceOnUse"><stop offset="0" stop-color="#f5515f"/><stop offset="1" stop-color="#9f041b"/></linearGradient><linearGradient id="ilk8d" x1="801.31" x2="801.31" y1="502.7" y2="555.54" gradientUnits="userSpaceOnUse"><stop offset="0" stop-color="#f5515f"/><stop offset="1" stop-color="#9f041b"/></linearGradient><linearGradient id="ilk8f" x1="801.31" x2="801.31" y1="562.87" y2="579.92" gradientUnits="userSpaceOnUse"><stop offset="0" stop-color="#f5515f"/><stop offset="1" stop-color="#9f041b"/></linearGradient></defs><g><g transform="translate(-727 -465)"><use fill="url(#ilk8b)" xlink:href="#ilk8a"/></g><g transform="translate(-727 -465)"><use fill="url(#ilk8d)" xlink:href="#ilk8c"/></g><g transform="translate(-727 -465)"><use fill="url(#ilk8f)" xlink:href="#ilk8e"/></g></g></svg>