<svg xmlns="http://www.w3.org/2000/svg" xmlns:xlink="http://www.w3.org/1999/xlink" width="25" height="19" viewBox="0 0 25 19"><defs><path id="yeaca" d="M796.56 827.1c-3.74 0-6.4 3.1-6.41 6.42a5.03 5.03 0 0 0-4.15 4.87c0 3 2.34 5.23 5 5.23h3.33c.44 0 .85-.39.85-.82 0-.44-.4-.84-.85-.83H791c-1.73 0-3.33-1.43-3.33-3.58 0-1.7 1.5-3.3 3.33-3.3.48 0 .9-.48.82-.95a4.8 4.8 0 0 1 4.74-5.39 4.7 4.7 0 0 1 4.25 2.58c.2.38.73.55 1.12.36a2.83 2.83 0 0 1 2.67.1c.8.48 1.4 1.35 1.4 2.74 0 .39.31.75.7.81 1.51.26 2.63 1.8 2.63 3.33 0 1.84-1.43 3.3-3.89 3.3h-2.77a.86.86 0 0 0-.85.83c0 .43.4.83.85.82h2.77c3.2 0 5.56-2.2 5.56-4.95 0-2.1-1.34-4.14-3.41-4.79a4.63 4.63 0 0 0-2.14-3.5 4.46 4.46 0 0 0-3.56-.4 6.34 6.34 0 0 0-5.33-2.88z"/><path id="yeacb" d="M796.18 839.76a.85.85 0 0 0-.7.55c-.1.29-.02.64.2.86l1.64 1.62-1.63 1.62a.86.86 0 0 0-.04 1.2c.16.16.4.21.63.21.21 0 .43-.07.59-.25l1.63-1.61 1.63 1.61c.15.17.38.25.6.25.21 0 .45-.05.62-.2.32-.32.3-.91-.04-1.2l-1.63-1.63 1.63-1.62a.84.84 0 0 0 .17-.95.86.86 0 0 0-.85-.46.84.84 0 0 0-.5.25l-1.63 1.61-1.63-1.61a.85.85 0 0 0-.69-.25z"/></defs><g><g transform="translate(-786 -827)"><g><use fill="#fff" xlink:href="#yeaca"/></g><g><use fill="#f33a3a" xlink:href="#yeacb"/></g></g></g></svg>