<?xml version="1.0" encoding="UTF-8"?>
<svg width="32px" height="24px" viewBox="0 0 32 24" version="1.1" xmlns="http://www.w3.org/2000/svg" xmlns:xlink="http://www.w3.org/1999/xlink">
    <!-- Generator: Sketch 50 (54983) - http://www.bohemiancoding.com/sketch -->
    <title>noun_330640_cc</title>
    <desc>Created with Sketch.</desc>
    <defs></defs>
    <g id="MAIN" stroke="none" stroke-width="1" fill="none" fill-rule="evenodd">
        <g id="Info_dashboard_security_settings_3" transform="translate(-862.000000, -1163.000000)">
            <g id="noun_330640_cc" transform="translate(862.000000, 1163.000000)">
                <g id="Group">
                    <path d="M13.5111111,0.125975652 C8.73269511,0.125975652 5.31557476,4.05286261 5.31111111,8.2346713 C2.28003093,8.75995478 0,11.4093496 0,14.3868452 C0,18.16608 2.99223467,20.9955409 6.4,20.9955409 L10.6666667,20.9955409 C11.2302002,21.0033357 11.7485248,20.5034003 11.7485248,19.9520626 C11.7485248,19.4007249 11.2302002,18.9007878 10.6666667,18.9085843 L6.4,18.9085843 C4.19022933,18.9085843 2.13333333,17.1090365 2.13333333,14.3868452 C2.13333333,12.251367 4.06819342,10.2129322 6.4,10.2129322 C7.01061902,10.2130268 7.54453404,9.6082487 7.45555556,9.01728 C6.98114809,5.71249391 9.62828693,2.21293217 13.5111111,2.21293217 C16.1342869,2.21293217 18.05648,3.70386435 18.9555556,5.46293217 C19.2089845,5.94922087 19.8913728,6.16656383 20.3888889,5.91945391 C21.4771918,5.38713043 22.7886428,5.46061565 23.8111111,6.06075826 C24.8335794,6.66090087 25.6,7.74916522 25.6,9.51728 C25.6034489,10.0030052 25.9993077,10.4580341 26.4888889,10.5390191 C28.4323378,10.8580139 29.8666667,12.8018017 29.8666667,14.7346713 C29.8666667,17.0614539 28.0380206,18.9085843 24.8888889,18.9085843 L21.3333333,18.9085843 C20.7697998,18.9007896 20.2514752,19.4007249 20.2514752,19.9520626 C20.2514752,20.5034003 20.7697998,21.0033374 21.3333333,20.9955409 L24.8888889,20.9955409 C28.9709337,20.9955409 32,18.2024626 32,14.7346713 C32,12.0802713 30.283254,9.51345739 27.6333333,8.69119304 C27.3906738,6.69483826 26.3452807,5.11559652 24.9,4.26728 C23.5261628,3.46089739 21.8702251,3.30152696 20.3333333,3.75641043 C18.9592484,1.71689391 16.5765977,0.125975652 13.5111111,0.125975652 Z" id="Shape" fill="#000000" fill-rule="nonzero"></path>
                    <path d="M13.0333333,16.1151061 C12.6339833,16.1569889 12.2712587,16.4390073 12.139402,16.8101374 C12.0075449,17.1812675 12.1132864,17.6225666 12.4,17.8977148 L14.4888889,19.9520626 L12.4,21.9955409 C11.9649788,22.3727099 11.943483,23.116568 12.3560277,23.517177 C12.5575015,23.7128219 12.8746023,23.7781496 13.1555556,23.7781496 C13.4294809,23.7781496 13.7154994,23.6820824 13.9111111,23.4629322 L16,21.4194539 L18.0888889,23.4629322 C18.2806894,23.6778125 18.5706457,23.7781496 18.8444444,23.7781496 C19.1254215,23.7781496 19.4383858,23.7168153 19.6439723,23.517177 C20.056517,23.1165683 20.0350212,22.3727099 19.6,21.9955409 L17.5111111,19.9520626 L19.6,17.8977148 C19.9174549,17.594897 20.0087538,17.0884261 19.8163303,16.697648 C19.6239065,16.3068699 19.1621536,16.0610163 18.7222222,16.1151061 C18.4828178,16.1459864 18.2553547,16.2591972 18.0888889,16.4303235 L16,18.4738017 L13.9111111,16.4303235 C13.6875993,16.2027071 13.354299,16.0830163 13.0333333,16.1151061 Z" id="Path" fill="#F33A3A"></path>
                </g>
            </g>
        </g>
    </g>
</svg>